<svg width="232" height="60" viewBox="0 0 232 60" fill="none" xmlns="http://www.w3.org/2000/svg">
<path d="M177.52 32.6723C177.52 32.5714 177.569 32.4706 177.619 32.4202C177.668 32.3697 177.718 32.3193 177.817 32.2689C177.916 32.2185 177.966 32.2185 178.065 32.1681C178.164 32.1681 178.263 32.1176 178.362 32.1176C178.561 32.1176 178.759 32.1681 178.908 32.2185C179.056 32.2689 179.156 32.4202 179.156 32.5714V34.084C179.156 34.1849 179.106 34.2857 179.056 34.3361C179.007 34.3866 178.957 34.437 178.858 34.4874C178.759 34.5378 178.709 34.5378 178.61 34.5882C178.511 34.5882 178.412 34.6387 178.313 34.6387C178.115 34.6387 177.916 34.5882 177.768 34.5378C177.619 34.4874 177.52 34.3361 177.52 34.1849V32.6723Z" fill="#343434"/>
<path d="M189.962 35.8487C189.962 36.4538 189.863 37.0084 189.715 37.4622C189.516 37.916 189.268 38.2689 188.872 38.5714C188.475 38.8739 187.98 39.0756 187.385 39.1765C186.79 39.3277 186.046 39.3781 185.203 39.3781C184.311 39.3781 183.617 39.3277 183.022 39.1765C182.427 39.0252 181.932 38.8235 181.535 38.5714C181.138 38.2689 180.891 37.916 180.692 37.4622C180.494 37.0084 180.444 36.4538 180.444 35.8487C180.444 35.2941 180.544 34.7395 180.643 34.3361C180.791 33.9328 181.039 33.5294 181.337 33.2773C181.634 32.9748 182.08 32.7731 182.576 32.6218C183.072 32.4706 183.667 32.3697 184.41 32.3193V31.1092C183.667 31.0588 183.072 30.958 182.576 30.8067C182.08 30.6555 181.684 30.4538 181.337 30.1513C181.039 29.8487 180.791 29.5462 180.643 29.0924C180.494 28.6891 180.444 28.1345 180.444 27.5798C180.444 27.0252 180.544 26.4706 180.643 26.0672C180.791 25.6639 181.039 25.2605 181.337 25.0084C181.634 24.7059 182.08 24.5042 182.527 24.3529C183.022 24.2017 183.617 24.1008 184.311 24.0504V23.3445C184.311 23.1429 184.41 23.042 184.559 22.9412C184.708 22.8403 184.906 22.8403 185.104 22.8403C185.303 22.8403 185.451 22.8908 185.6 22.9412C185.749 23.042 185.848 23.1429 185.848 23.3445V24.0504C186.542 24.1008 187.137 24.2017 187.632 24.3529C188.128 24.5042 188.525 24.7059 188.872 25.0084C189.169 25.3109 189.417 25.6134 189.566 26.0672C189.715 26.4706 189.814 26.9748 189.814 27.5798C189.814 28.1849 189.715 28.6891 189.615 29.0924C189.467 29.4958 189.219 29.8992 188.921 30.1513C188.624 30.4538 188.178 30.6555 187.682 30.8067C187.186 30.958 186.591 31.0588 185.897 31.0588V32.2689C186.591 32.3193 187.186 32.4202 187.682 32.5714C188.178 32.7227 188.574 32.9244 188.921 33.2269C189.268 33.5294 189.467 33.8319 189.615 34.2857C189.863 34.7899 189.962 35.2941 189.962 35.8487ZM188.426 27.5798C188.426 27.1765 188.376 26.7731 188.227 26.521C188.079 26.2185 187.93 26.0168 187.682 25.8151C187.434 25.6134 187.087 25.5126 186.691 25.4118C186.294 25.3109 185.798 25.2605 185.253 25.2605C184.658 25.2605 184.162 25.3109 183.716 25.4118C183.32 25.5126 182.973 25.6134 182.725 25.8151C182.477 26.0168 182.328 26.2185 182.229 26.521C182.13 26.8235 182.08 27.126 182.08 27.5798C182.08 28.0336 182.13 28.3361 182.229 28.6387C182.328 28.9412 182.527 29.1429 182.725 29.3445C182.923 29.5462 183.27 29.6471 183.716 29.7479C184.162 29.8487 184.609 29.8992 185.253 29.8992C185.848 29.8992 186.393 29.8487 186.79 29.7479C187.186 29.6471 187.533 29.5462 187.781 29.3445C188.029 29.1429 188.178 28.9412 188.277 28.6387C188.376 28.3361 188.426 27.9832 188.426 27.5798ZM188.426 35.8487C188.426 35.4454 188.376 35.042 188.227 34.7899C188.079 34.4874 187.93 34.2857 187.682 34.084C187.434 33.8823 187.087 33.7815 186.691 33.6807C186.294 33.5798 185.798 33.5294 185.253 33.5294C184.658 33.5294 184.162 33.5798 183.716 33.6807C183.32 33.7815 182.973 33.8823 182.725 34.084C182.477 34.2857 182.328 34.4874 182.229 34.7899C182.13 35.0924 182.08 35.395 182.08 35.8487C182.08 36.3025 182.13 36.605 182.229 36.9076C182.328 37.2101 182.527 37.4118 182.725 37.6134C182.923 37.8151 183.27 37.916 183.716 38.0168C184.162 38.1176 184.609 38.1681 185.253 38.1681C185.848 38.1681 186.393 38.1176 186.79 38.0168C187.186 37.916 187.533 37.8151 187.781 37.6134C188.029 37.4118 188.178 37.2101 188.277 36.9076C188.376 36.605 188.426 36.2521 188.426 35.8487Z" fill="#343434"/>
<path d="M195.366 34.6387C194.672 34.6387 194.077 34.5882 193.581 34.437C193.085 34.2857 192.689 34.1345 192.292 33.8824C191.945 33.6303 191.697 33.3782 191.45 33.0252C191.251 32.7227 191.103 32.3193 191.003 31.9664C190.904 31.563 190.805 31.1597 190.805 30.7059C190.805 30.2521 190.756 29.7983 190.756 29.3445V29.2941C190.756 28.8403 190.805 28.3866 190.805 27.9328C190.855 27.479 190.904 27.0756 191.003 26.6723C191.103 26.2689 191.251 25.916 191.45 25.6134C191.648 25.3109 191.945 25.0084 192.292 24.7563C192.639 24.5042 193.085 24.3529 193.581 24.2017C194.077 24.0504 194.672 24 195.366 24H195.415C196.109 24 196.704 24.0504 197.2 24.2017C197.696 24.3529 198.142 24.5042 198.489 24.7563C198.836 25.0084 199.084 25.2605 199.332 25.6134C199.53 25.9664 199.679 26.3193 199.827 26.6723C199.927 27.0756 200.026 27.479 200.075 27.9328C200.125 28.3866 200.125 28.8403 200.125 29.2941V29.3445C200.125 29.7983 200.075 30.2521 200.075 30.7059C200.026 31.1597 199.976 31.563 199.827 31.9664C199.728 32.3698 199.579 32.7227 199.332 33.0252C199.133 33.3277 198.836 33.6303 198.489 33.8824C198.142 34.1345 197.745 34.2857 197.2 34.437C196.704 34.5882 196.109 34.6387 195.415 34.6387H195.366ZM195.465 33.3277C196.109 33.3277 196.605 33.2269 197.051 33.0756C197.448 32.9244 197.745 32.6723 197.944 32.3193C198.142 32.0168 198.291 31.563 198.39 31.1092C198.489 30.6555 198.489 30.1008 198.489 29.4454V29.1429C198.489 28.5378 198.439 27.9832 198.39 27.5294C198.291 27.0756 198.191 26.6219 197.944 26.3193C197.745 26.0168 197.448 25.7647 197.051 25.563C196.655 25.3613 196.159 25.3109 195.465 25.3109H195.267C194.622 25.3109 194.127 25.4118 193.68 25.563C193.284 25.7143 192.986 25.9664 192.788 26.3193C192.59 26.6219 192.441 27.0756 192.391 27.5294C192.292 27.9832 192.292 28.5378 192.292 29.1429V29.4454C192.292 30.0504 192.342 30.605 192.391 31.0588C192.491 31.5126 192.59 31.9664 192.788 32.2689C192.986 32.5714 193.284 32.8235 193.68 33.0252C194.077 33.2269 194.573 33.2773 195.267 33.2773L195.465 33.3277Z" fill="#343434"/>
<path d="M208.552 24.7563C208.602 24.5546 208.651 24.4538 208.701 24.3529C208.75 24.2521 208.8 24.1513 208.85 24.1513C208.899 24.1008 208.949 24.0504 208.998 24.0504C209.048 24.0504 209.147 24.0504 209.246 24.0504C209.345 24.0504 209.444 24.1008 209.593 24.1008C209.742 24.1513 209.841 24.2017 209.94 24.3025C210.039 24.4034 210.089 24.5042 210.138 24.605C210.188 24.7563 210.188 24.9076 210.089 25.1092L207.065 33.479C206.966 33.7311 206.867 33.9328 206.768 34.084C206.668 34.2353 206.52 34.3361 206.371 34.437C206.222 34.5378 206.074 34.5882 205.875 34.6386C205.677 34.6891 205.528 34.6891 205.33 34.6891H205.132C204.933 34.6891 204.735 34.6386 204.586 34.6386C204.388 34.5882 204.239 34.5378 204.091 34.437C203.942 34.3361 203.793 34.2353 203.694 34.084C203.595 33.9328 203.496 33.7311 203.397 33.479L200.274 25.1092C200.174 24.9076 200.174 24.7563 200.224 24.605C200.274 24.4538 200.323 24.3529 200.422 24.3025C200.521 24.2017 200.621 24.1513 200.72 24.1008C200.868 24.0504 200.968 24.0504 201.067 24.0504C201.166 24.0504 201.265 24.0504 201.315 24.0504C201.414 24.0504 201.463 24.1008 201.513 24.1513C201.562 24.2017 201.612 24.2521 201.662 24.3529C201.711 24.4538 201.761 24.605 201.81 24.7563L204.735 33.0252C204.785 33.126 204.834 33.2269 204.884 33.2773C204.933 33.3277 205.032 33.3781 205.132 33.3781H205.181C205.28 33.3781 205.379 33.3277 205.429 33.2773C205.528 33.2269 205.578 33.126 205.578 33.0252L208.552 24.7563Z" fill="#343434"/>
<path d="M209.643 32.6723C209.643 32.5714 209.692 32.4706 209.742 32.4202C209.791 32.3697 209.841 32.3193 209.94 32.2689C210.039 32.2185 210.089 32.2185 210.188 32.1681C210.287 32.1681 210.386 32.1176 210.485 32.1176C210.684 32.1176 210.882 32.1681 211.031 32.2185C211.179 32.2689 211.279 32.4202 211.279 32.5714V34.084C211.279 34.1849 211.229 34.2857 211.179 34.3361C211.13 34.3866 211.08 34.437 210.981 34.4874C210.882 34.5378 210.832 34.5378 210.733 34.5882C210.634 34.5882 210.535 34.6387 210.436 34.6387C210.238 34.6387 210.039 34.5882 209.891 34.5378C209.742 34.4874 209.643 34.3361 209.643 34.1849V32.6723Z" fill="#343434"/>
<path d="M218.566 34.6387C218.268 34.6387 217.921 34.6387 217.574 34.5882C217.227 34.5882 216.831 34.5378 216.533 34.4874C216.186 34.437 215.839 34.3866 215.492 34.2857C215.145 34.1849 214.848 34.084 214.6 33.9832V38.2185C214.6 38.3698 214.6 38.4706 214.55 38.5714C214.501 38.6723 214.501 38.7227 214.451 38.7731C214.402 38.8235 214.352 38.874 214.303 38.874C214.253 38.874 214.154 38.9244 214.055 38.9244C213.956 38.9244 213.856 38.9244 213.708 38.874C213.559 38.8235 213.46 38.8235 213.361 38.7731C213.262 38.7227 213.162 38.6219 213.113 38.521C213.014 38.4202 213.014 38.2689 213.014 38.0672V26.0672C213.014 25.8151 213.113 25.6134 213.262 25.3613C213.41 25.1092 213.658 25.0084 213.956 24.8571C214.253 24.7059 214.55 24.5546 214.947 24.4538C215.344 24.3529 215.74 24.2521 216.137 24.2017C216.533 24.1513 216.979 24.1008 217.376 24.0504C217.773 24 218.219 24 218.566 24C219.309 24 219.904 24.1513 220.35 24.4034C220.797 24.6555 221.193 25.0588 221.441 25.563C221.689 26.0672 221.887 26.6219 221.986 27.3277C222.085 28.0336 222.135 28.7395 222.135 29.5462V29.6471C222.135 30.3529 222.085 31.0084 221.986 31.6134C221.887 32.2185 221.738 32.7227 221.491 33.1765C221.243 33.6303 220.896 33.9832 220.4 34.2353C219.904 34.4874 219.309 34.6387 218.566 34.6387ZM214.55 32.4202C214.55 32.5714 214.699 32.6723 214.897 32.7731C215.145 32.874 215.393 32.9748 215.74 33.0252C216.087 33.1261 216.484 33.1765 216.93 33.2269C217.376 33.2773 217.822 33.3277 218.268 33.3277C218.615 33.3782 218.863 33.2773 219.161 33.2269C219.458 33.1261 219.656 33.0252 219.904 32.7731C220.103 32.5714 220.251 32.2689 220.4 31.8151C220.499 31.4118 220.598 30.8571 220.598 30.2017V29.042C220.598 28.437 220.549 27.9328 220.499 27.479C220.4 27.0756 220.301 26.7227 220.202 26.4202C220.053 26.1176 219.904 25.916 219.756 25.7647C219.557 25.6134 219.409 25.5126 219.21 25.4118C219.012 25.3109 218.814 25.2605 218.615 25.2605C218.417 25.2101 218.219 25.2101 218.02 25.2101C217.574 25.2101 217.128 25.2605 216.682 25.3109C216.285 25.4118 215.889 25.4622 215.591 25.563C215.294 25.6639 215.046 25.8151 214.848 25.916C214.65 26.0672 214.6 26.2185 214.6 26.3697V32.2689H214.55V32.4202Z" fill="#343434"/>
<path d="M224.862 25.4118V31.3613C224.862 31.7143 224.911 32.0168 225.01 32.2689C225.109 32.521 225.209 32.7227 225.407 32.8739C225.605 33.0252 225.803 33.1261 226.101 33.1765C226.349 33.2269 226.696 33.2773 227.043 33.2773C227.39 33.2773 227.737 33.2269 227.935 33.1765C228.183 33.0756 228.381 33.0252 228.53 32.9244C228.679 32.8235 228.827 32.7731 228.926 32.6723C229.026 32.5714 229.125 32.5714 229.224 32.5714C229.422 32.5714 229.571 32.6219 229.621 32.7227C229.67 32.8235 229.72 32.9748 229.72 33.0756C229.72 33.2773 229.621 33.4286 229.521 33.5798C229.373 33.7815 229.174 33.9328 228.926 34.0336C228.679 34.1849 228.381 34.2857 228.034 34.3866C227.687 34.4874 227.291 34.5378 226.894 34.5378C226.497 34.5378 226.051 34.4874 225.655 34.3866C225.258 34.2857 224.862 34.1345 224.515 33.9328C224.168 33.7311 223.92 33.4286 223.672 33.0756C223.474 32.7227 223.374 32.2185 223.374 31.6134V25.4622C223.226 25.4622 223.126 25.4622 223.027 25.4622C222.879 25.4622 222.779 25.4118 222.73 25.3613C222.631 25.3109 222.581 25.2101 222.482 25.1092C222.383 25.0084 222.383 24.8571 222.383 24.7059C222.383 24.5546 222.432 24.4538 222.432 24.4034C222.482 24.3025 222.532 24.2521 222.631 24.2017C222.73 24.1513 222.829 24.1513 222.928 24.1008C223.077 24.1008 223.226 24.0504 223.374 24.0504V22.3361C223.374 22.1345 223.474 22.0336 223.622 21.9832C223.771 21.9328 223.969 21.8824 224.168 21.8824C224.267 21.8824 224.366 21.8824 224.465 21.9328C224.564 21.9328 224.663 21.9832 224.713 21.9832C224.812 22.0336 224.862 22.084 224.911 22.1345C224.961 22.1849 225.01 22.2857 225.01 22.3361V24.0504H228.332C228.431 24.0504 228.579 24.0504 228.679 24.0504C228.827 24.0504 228.976 24.0504 229.075 24.1008C229.224 24.1513 229.323 24.2017 229.422 24.3025C229.521 24.4034 229.571 24.5042 229.571 24.7059C229.571 24.8571 229.521 25.0084 229.422 25.1597C229.323 25.3109 229.224 25.3613 229.075 25.4118C228.976 25.4118 228.877 25.4118 228.728 25.4118C228.579 25.4118 228.332 25.4118 228.133 25.4118H224.862Z" fill="#343434"/>
<path d="M23.4974 11.1933C23.6461 13.2101 22.6051 15.4286 19.9778 15.9328C18.441 16.2353 17.3008 16.437 16.3094 16.5882C16.1607 16.6387 16.0615 16.6387 15.9128 16.6891L15.0701 20.4706C15.6154 20.3698 16.2102 20.2689 16.9043 20.1177C17.8957 19.916 19.0359 19.7143 20.5726 19.4118C24.5384 18.6555 27.1162 15.1765 26.8684 10.9412C26.6205 7.31093 24.1914 3.57984 19.3333 2.01682L18.5402 5.49581C21.7624 6.60505 23.3487 8.92438 23.4974 11.1933Z" fill="url(#paint0_linear_1255_671)"/>
<path d="M4.41196 19.4622C4.1641 17.5462 3.96581 13.563 4.7094 10.5378C5.40342 7.56302 7.08889 4.53781 14.5744 4.78991C15.3675 4.84033 16.1111 4.89075 16.8051 5.04201L17.5983 1.56302C16.706 1.36134 15.7145 1.2605 14.6735 1.21008C7.18803 0.95798 2.87521 3.73109 1.4376 9.68067C0.545297 13.4118 0.79316 18.8571 1.23931 23.2941C1.78461 21.6302 2.87521 20.3193 4.41196 19.4622Z" fill="url(#paint1_linear_1255_671)"/>
<path d="M25.1829 31.5126C24.8359 31.2605 24.3402 31.1597 23.7949 31.1597L12.988 31.1093C12.8393 31.1093 12.6906 31.1093 12.5419 31.1093L11.7487 34.6387C12.294 34.6891 12.8393 34.6891 13.3846 34.6891L23.6462 34.7395C24.3897 34.7395 24.935 34.6387 25.2325 34.3866C25.5795 34.1345 25.7282 33.6303 25.7282 32.874C25.7282 32.2185 25.5299 31.7647 25.1829 31.5126Z" fill="#EB2625"/>
<path d="M14.0292 16.9916C12.195 17.3445 10.6087 17.6975 6.79157 18.5042C5.89926 18.7059 5.1061 19.0084 4.41208 19.4118C2.87533 20.2689 1.73516 21.6302 1.23943 23.2437C0.941994 24.1008 0.842849 25.0084 0.892422 26.0168C1.14028 29.7983 4.06507 33.9832 9.07191 34.3866C9.36934 34.437 9.66678 34.437 9.96422 34.437L10.807 30.9076C10.3608 30.8571 9.86507 30.8571 9.31977 30.8067C6.34541 30.5546 4.41208 28.0336 4.26336 25.7143C4.11464 23.7479 5.30439 22.3866 7.53516 21.8824C10.2617 21.2773 11.7984 20.9244 13.1864 20.6723C13.8309 20.521 14.4753 20.4202 15.1198 20.3193L16.0121 16.5378C15.2189 16.7899 14.624 16.8908 14.0292 16.9916Z" fill="#EB2625"/>
<path d="M30.4376 43.5126C30.2393 43.5126 29.9915 43.4622 29.694 43.4622C29.3966 43.4118 29.1487 43.3614 28.9009 43.2101C28.653 43.0588 28.4547 42.8572 28.2564 42.6051C28.0581 42.353 28.0085 42 28.0085 41.5462V16.6891C28.0085 16.1345 28.2068 15.5798 28.5538 15.1261C28.9009 14.6723 29.3966 14.3193 30.041 13.9664C30.6359 13.6639 31.3299 13.3614 32.1231 13.1597C32.9162 12.9076 33.759 12.7563 34.6017 12.6051C35.4444 12.4538 36.3367 12.353 37.2291 12.3025C38.1214 12.2521 38.9641 12.2017 39.7573 12.2017C41.294 12.2017 42.5333 12.5042 43.5744 13.1093C44.5658 13.6639 45.359 14.521 45.9043 15.5798C46.4496 16.6387 46.8462 17.8992 47.0444 19.3109C47.2427 20.7227 47.3419 22.2857 47.3419 24V24.2017C47.3419 25.6639 47.2427 27.0252 47.094 28.2353C46.8957 29.4958 46.5487 30.6051 46.0034 31.563C45.4581 32.521 44.665 33.2773 43.6735 33.8319C42.682 34.3866 41.3932 34.6387 39.7573 34.6387C39.1128 34.6387 38.4188 34.6387 37.6752 34.5882C36.9316 34.5378 36.188 34.4874 35.4444 34.437C34.7009 34.3361 33.9573 34.2353 33.2632 34.084C32.6684 33.9328 32.1231 33.7815 31.6273 33.5294V42C31.6273 42.3025 31.5778 42.5546 31.5778 42.7563C31.5282 42.958 31.4786 43.1093 31.3795 43.2101C31.2803 43.3614 31.1316 43.4118 30.9829 43.4622C30.8342 43.4622 30.6359 43.5126 30.4376 43.5126ZM38.5179 15.3277C37.5761 15.3277 36.6838 15.4286 35.841 15.5294C34.9983 15.6807 34.2547 15.8319 33.6103 16.084C33.0154 16.2857 32.5197 16.5378 32.1231 16.8403C31.8256 17.0924 31.6273 17.3445 31.6273 17.5966V29.9496C31.6769 30.2017 31.9744 30.4034 32.2222 30.5042C32.6684 30.7059 33.2632 30.9076 33.9573 31.0084C34.7009 31.1597 35.494 31.2605 36.3863 31.3614C37.2786 31.4622 38.2205 31.5126 39.1128 31.5126C39.2615 31.5126 39.3607 31.5126 39.4598 31.5126C40.0051 31.5126 40.5009 31.4622 40.947 31.3109C41.4923 31.1597 41.9385 30.9076 42.335 30.4538C42.7316 30 43.0786 29.395 43.2769 28.5882C43.4752 27.7815 43.6239 26.6723 43.6239 25.3109V22.8908C43.6239 21.6303 43.5248 20.5714 43.3761 19.7143C43.2273 18.8572 43.0291 18.1513 42.7812 17.5966C42.5333 17.042 42.2359 16.5882 41.8889 16.2857C41.5419 15.9832 41.1949 15.7815 40.7983 15.5798C40.4017 15.4286 40.0051 15.3277 39.6085 15.2773C39.3111 15.3782 38.9145 15.3277 38.5179 15.3277Z" fill="#343434"/>
<path d="M58.9915 34.6891C57.5539 34.6891 56.265 34.5378 55.224 34.2857C54.1829 34.0336 53.241 33.5798 52.547 33.126C51.8034 32.6218 51.2086 32.0168 50.7624 31.3109C50.3163 30.605 49.9693 29.8487 49.771 28.9916C49.5231 28.1849 49.3744 27.2773 49.3248 26.3697C49.2257 25.4622 49.1761 24.5042 49.1761 23.5462V23.4454C49.1761 22.4874 49.2257 21.5294 49.3248 20.6218C49.424 19.7143 49.5727 18.8067 49.771 18C50.0188 17.1429 50.3163 16.3866 50.7624 15.6807C51.2086 14.9748 51.8034 14.3697 52.547 13.8655C53.2906 13.3613 54.1829 12.958 55.224 12.7059C56.265 12.4034 57.5043 12.3025 58.9915 12.3025H59.1402C60.5778 12.3025 61.8667 12.4538 62.9077 12.7059C63.9487 12.958 64.8906 13.4118 65.5846 13.8655C66.3282 14.3697 66.9231 14.9748 67.3692 15.6807C67.8154 16.3866 68.1624 17.1429 68.4103 18C68.6581 18.8067 68.8069 19.7143 68.8564 20.6218C68.9556 21.5294 69.0051 22.4874 69.0051 23.4454V23.5462C69.0051 24.5042 68.9556 25.4622 68.8564 26.3697C68.7573 27.2773 68.6086 28.1849 68.4103 28.9916C68.1624 29.8487 67.865 30.605 67.3692 31.3109C66.9231 32.0168 66.3282 32.6218 65.5846 33.126C64.841 33.6302 63.9487 34.0336 62.9077 34.2857C61.8667 34.5378 60.5778 34.6891 59.1402 34.6891H58.9915ZM58.8428 15.3277C57.5043 15.3277 56.4633 15.5294 55.6701 15.8319C54.8769 16.1849 54.2821 16.6891 53.8855 17.2941C53.4393 17.9496 53.1419 18.7563 53.0428 19.7143C52.894 20.6723 52.8445 21.8319 52.8445 23.0924V23.7479C52.8445 25.0084 52.9436 26.1176 53.0428 27.126C53.1915 28.084 53.4393 28.8908 53.8855 29.5462C54.2821 30.2017 54.9265 30.7059 55.6701 31.0084C56.4633 31.3613 57.5043 31.5126 58.8428 31.5126H59.2393C60.5778 31.5126 61.6188 31.3109 62.412 31.0084C63.2051 30.6555 63.8 30.1513 64.1966 29.5462C64.6428 28.8908 64.9402 28.084 65.0393 27.126C65.1881 26.1681 65.2376 25.0084 65.2376 23.7479V23.0924C65.2376 21.8319 65.1385 20.7227 65.0393 19.7143C64.8906 18.7563 64.5932 17.9496 64.1966 17.2941C63.8 16.6891 63.1556 16.1849 62.412 15.8319C61.6188 15.479 60.5778 15.3277 59.2393 15.3277H58.8428Z" fill="#343434"/>
<path d="M72.971 34.6891C72.5248 34.6891 72.1282 34.5882 71.7812 34.4874C71.3846 34.3361 71.1863 34.0336 71.1863 33.5294V16.2857C71.1863 15.7815 71.3351 15.3277 71.6325 14.874C71.9299 14.4706 72.3265 14.1177 72.8222 13.8151C73.318 13.5126 73.9128 13.2605 74.5573 13.0084C75.2017 12.7563 75.8957 12.6051 76.6393 12.5042C77.3829 12.353 78.1265 12.3025 78.8701 12.2521C79.465 12.2017 80.0598 12.2017 80.6051 12.2017C80.7539 12.2017 80.9026 12.2017 81.1009 12.2017C81.894 12.2521 82.588 12.353 83.1829 12.5042C83.7778 12.6555 84.2735 12.8572 84.6701 13.1093C85.0667 13.3614 85.3641 13.6639 85.5624 13.9664C85.7607 14.2689 85.8598 14.6723 85.8598 14.9748C85.8598 15.1261 85.8103 15.2269 85.8103 15.3782C85.7607 15.5294 85.7111 15.6807 85.612 15.7815C85.5128 15.9328 85.3641 16.0336 85.2154 16.1345C85.0171 16.2353 84.8188 16.2857 84.571 16.2857C84.2735 16.2857 84.0257 16.2353 83.8274 16.084C83.6291 15.9832 83.4308 15.8824 83.2325 15.7311C82.9846 15.6303 82.6872 15.5294 82.3402 15.4286C81.9932 15.3277 81.4479 15.2773 80.7539 15.2773C79.4154 15.2773 78.3744 15.3782 77.5316 15.5294C76.7385 15.6807 76.094 15.8824 75.6974 16.084C75.3009 16.2857 75.0034 16.4874 74.9043 16.6891C74.706 16.9916 74.706 17.0924 74.706 17.1429V33.4286C74.706 33.6807 74.6564 33.8824 74.5077 34.0336C74.4086 34.1849 74.2598 34.2857 74.0615 34.3866C73.8633 34.4874 73.7145 34.5378 73.5163 34.5378C73.318 34.6891 73.1197 34.6891 72.971 34.6891Z" fill="#343434"/>
<path d="M96.9641 34.6891C96.0718 34.6891 95.1795 34.5883 94.3368 34.437C93.4444 34.2857 92.6513 33.9832 91.9573 33.479C91.2137 33.0252 90.6188 32.3698 90.2222 31.6135C89.7761 30.8067 89.5282 29.7479 89.5282 28.4874V15.5799C89.4786 15.5799 89.4291 15.5799 89.4291 15.5799C89.2803 15.5799 89.1316 15.5798 88.9829 15.5294C88.6855 15.479 88.4872 15.4286 88.2393 15.3277C87.9915 15.1765 87.8427 15.0252 87.694 14.7731C87.5453 14.521 87.4957 14.2185 87.4957 13.8151C87.4957 13.5126 87.5453 13.2605 87.6444 13.0588C87.7436 12.8572 87.8923 12.7059 88.0906 12.6051C88.2889 12.5042 88.4872 12.4538 88.7846 12.4034C88.9829 12.353 89.2308 12.353 89.5282 12.353V9.07565C89.5282 8.47061 89.8752 8.21851 90.1231 8.11767C90.4701 8.01683 90.8667 7.91599 91.3128 7.91599C91.5111 7.91599 91.7094 7.91599 91.9077 7.96641C92.106 8.01683 92.3043 8.06725 92.453 8.11767C92.6513 8.21851 92.8 8.31935 92.8991 8.47061C93.0479 8.62187 93.0974 8.82355 93.0974 9.02523V12.4034H99.7402C99.9385 12.4034 100.186 12.4034 100.484 12.353C100.533 12.353 100.583 12.353 100.682 12.353C100.93 12.353 101.178 12.4034 101.426 12.4538C101.723 12.5546 101.971 12.6555 102.219 12.8572C102.467 13.0588 102.566 13.4118 102.566 13.8151C102.566 14.2185 102.467 14.5714 102.268 14.874C102.07 15.2269 101.773 15.4286 101.426 15.4286C101.277 15.479 101.029 15.479 100.632 15.479H93.0974V27.7311C93.0974 28.4874 93.1966 29.0925 93.3453 29.5462C93.494 30 93.7419 30.4034 94.0889 30.7059C94.4359 31.0084 94.8821 31.2101 95.4274 31.3109C95.9727 31.4622 96.6171 31.5126 97.4103 31.5126C98.1538 31.5126 98.7487 31.4118 99.1949 31.2605C99.6906 31.1093 100.087 30.958 100.385 30.7563C100.682 30.5546 100.979 30.4034 101.178 30.2521C101.426 30.0504 101.674 29.9496 101.921 29.9496C102.417 29.9496 102.764 30.1009 102.913 30.353C103.062 30.6051 103.161 30.9076 103.161 31.2605C103.161 31.6639 102.962 32.1177 102.665 32.4706C102.368 32.874 101.921 33.2269 101.326 33.5294C100.781 33.8319 100.137 34.0841 99.3932 34.2857C98.6496 34.5883 97.8564 34.6891 96.9641 34.6891Z" fill="#343434"/>
<path d="M112.53 34.6387C110.894 34.6387 109.556 34.3866 108.515 33.8319C107.473 33.2773 106.68 32.521 106.085 31.563C105.491 30.6051 105.094 29.395 104.896 28.0336C104.697 26.6723 104.598 25.1093 104.598 23.395V13.2605C104.598 13.0084 104.648 12.8572 104.797 12.7059C104.896 12.5546 105.044 12.4538 105.243 12.353C105.441 12.2521 105.59 12.2017 105.788 12.2017C105.986 12.1513 106.185 12.1513 106.383 12.1513C106.829 12.1513 107.226 12.2017 107.573 12.3025C107.87 12.4034 108.167 12.6051 108.167 13.2101L108.068 22.2857C108.068 23.8992 108.118 25.3614 108.267 26.521C108.366 27.6807 108.614 28.6387 109.01 29.395C109.357 30.1513 109.903 30.7059 110.547 31.0084C111.241 31.3614 112.133 31.5126 113.323 31.5126C114.513 31.5126 115.504 31.4622 116.347 31.4622C117.19 31.4118 117.834 31.3614 118.379 31.2605C118.875 31.1597 119.321 31.0588 119.569 30.958C119.817 30.8572 120.015 30.7563 120.164 30.6051C120.263 30.4538 120.362 30.353 120.362 30.2017C120.362 30.0504 120.412 29.8488 120.412 29.6471V13.2605C120.412 13.0084 120.462 12.8572 120.61 12.7059C120.709 12.5546 120.858 12.4538 121.056 12.353C121.255 12.2521 121.403 12.2017 121.602 12.2017C121.8 12.1513 121.998 12.1513 122.197 12.1513C122.643 12.1513 123.039 12.2017 123.386 12.3025C123.783 12.4538 124.031 12.7563 124.031 13.2101V31.1093C124.031 31.916 123.684 32.5714 123.089 33.0756C122.494 33.5294 121.651 33.8824 120.61 34.084C119.619 34.3362 118.379 34.437 116.991 34.5378C115.554 34.6387 114.067 34.6387 112.53 34.6387Z" fill="#343434"/>
<path d="M136.226 44.5714C134.441 44.5714 132.904 44.4202 131.665 44.1681C130.376 43.916 129.335 43.4622 128.542 42.8572C127.749 42.2521 127.104 41.4454 126.757 40.4874C126.41 39.5294 126.212 38.3698 126.212 37.0084C126.212 35.7983 126.361 34.6891 126.658 33.7815C126.956 32.874 127.501 32.0672 128.145 31.4622C128.79 30.8572 129.732 30.4034 130.773 30.0504C131.764 29.7479 133.003 29.5462 134.391 29.4958V27.3782C132.954 27.2773 131.764 27.1261 130.773 26.8235C129.732 26.521 128.79 26.0168 128.145 25.4118C127.451 24.8067 126.956 24 126.658 23.0924C126.361 22.1849 126.212 21.0756 126.212 19.8151C126.212 18.605 126.361 17.4958 126.658 16.5882C126.956 15.6807 127.501 14.874 128.145 14.2689C128.839 13.6639 129.682 13.2101 130.773 12.8572C131.764 12.5546 133.003 12.3529 134.391 12.3025V11.0924C134.391 10.6387 134.59 10.2857 134.986 10.084C135.333 9.93278 135.73 9.83194 136.176 9.83194C136.573 9.83194 137.019 9.93278 137.366 10.084C137.762 10.2857 137.961 10.5882 137.961 11.0924V12.3025C139.349 12.4034 140.588 12.605 141.579 12.9076C142.621 13.2605 143.562 13.7143 144.256 14.3193C144.95 14.9244 145.446 15.7311 145.793 16.5882C146.091 17.4958 146.289 18.5546 146.289 19.8151C146.289 21.0756 146.14 22.1345 145.843 23.0924C145.545 24 145 24.8067 144.306 25.4118C143.612 26.0168 142.72 26.4706 141.679 26.8235C140.687 27.1261 139.448 27.3277 138.06 27.3782V29.5462C139.448 29.6471 140.638 29.8487 141.629 30.1513C142.67 30.4538 143.612 30.958 144.256 31.563C144.95 32.1681 145.446 32.9748 145.793 33.8824C146.091 34.7899 146.289 35.8487 146.289 37.1093C146.289 38.4706 146.091 39.6303 145.744 40.5882C145.397 41.5462 144.752 42.3529 143.959 42.958C143.166 43.563 142.125 44.0168 140.836 44.2689C139.597 44.4706 138.01 44.5714 136.226 44.5714ZM136.226 32.4706C134.986 32.4706 133.945 32.5714 133.053 32.7227C132.21 32.874 131.566 33.1261 131.12 33.5294C130.674 33.8824 130.327 34.3361 130.128 34.9412C129.93 35.4958 129.831 36.2521 129.831 37.0588C129.831 37.916 129.93 38.6219 130.128 39.1765C130.327 39.7311 130.674 40.1849 131.12 40.5378C131.566 40.8908 132.26 41.1429 133.053 41.3445C133.896 41.4958 134.937 41.5966 136.226 41.5966C137.515 41.5966 138.556 41.4958 139.398 41.3445C140.241 41.1933 140.885 40.9412 141.381 40.5378C141.827 40.1849 142.174 39.7311 142.373 39.1765C142.571 38.6219 142.67 37.8656 142.67 37.0588C142.67 36.2017 142.521 35.4958 142.274 34.9412C142.026 34.3866 141.679 33.9328 141.133 33.5798C140.638 33.2269 139.944 32.9748 139.15 32.7731C138.407 32.521 137.366 32.4706 136.226 32.4706ZM136.226 15.2773C134.937 15.2773 133.945 15.3782 133.053 15.5294C132.21 15.6807 131.566 15.9328 131.12 16.3361C130.674 16.6891 130.327 17.1429 130.128 17.6975C129.93 18.2521 129.831 19.0084 129.831 19.8151C129.831 20.6723 129.93 21.3782 130.128 21.9328C130.327 22.4874 130.674 22.9412 131.12 23.2941C131.566 23.6471 132.26 23.8992 133.053 24.1008C133.896 24.2521 134.937 24.3529 136.226 24.3529C137.515 24.3529 138.556 24.2521 139.398 24.1008C140.241 23.9496 140.885 23.6975 141.381 23.2941C141.827 22.9412 142.174 22.4874 142.373 21.9328C142.571 21.3782 142.67 20.6219 142.67 19.8151C142.67 18.958 142.521 18.2521 142.274 17.6975C142.026 17.1429 141.679 16.6891 141.133 16.3361C140.638 15.9832 139.944 15.7311 139.15 15.5294C138.407 15.3782 137.366 15.2773 136.226 15.2773Z" fill="#343434"/>
<path d="M156.402 34.6891C154.667 34.6891 153.229 34.3866 152.188 33.8824C151.147 33.3277 150.354 32.5714 149.759 31.6135C149.164 30.6555 148.817 29.5462 148.668 28.2857C148.52 27.0756 148.421 25.6639 148.421 24.2521V24.0504C148.421 22.084 148.569 20.4202 148.867 18.9076C149.164 17.4454 149.709 16.1849 150.354 15.2269C151.048 14.2185 151.94 13.4622 153.031 12.958C154.072 12.4538 155.361 12.2017 156.897 12.2017C157.691 12.2017 158.533 12.2521 159.376 12.3025C160.219 12.353 161.062 12.5042 161.805 12.6555C162.598 12.8067 163.342 13.0588 164.085 13.3614C164.829 13.6639 165.424 14.0672 165.969 14.5714C166.515 15.0756 166.911 15.6807 167.258 16.3361C167.556 17.042 167.704 17.8487 167.704 18.8067V32.521C167.704 32.9244 167.605 33.2773 167.456 33.5294C167.308 33.7815 167.109 33.9832 166.862 34.1345C166.614 34.2857 166.316 34.3866 165.969 34.437C165.622 34.4874 165.275 34.5378 164.928 34.5378H164.879L163.491 34.1345C162.598 34.2353 161.557 34.3361 160.417 34.437C159.178 34.6387 157.839 34.6891 156.402 34.6891ZM158.038 15.3277C157.591 15.3277 157.096 15.3782 156.6 15.4286C156.154 15.479 155.658 15.5798 155.212 15.7815C154.766 15.9832 154.369 16.1849 153.973 16.5378C153.576 16.8403 153.229 17.2941 152.981 17.8488C152.684 18.4034 152.485 19.1093 152.287 19.916C152.089 20.7731 152.039 21.7311 152.039 22.8908V25.1093C152.039 26.521 152.138 27.6303 152.386 28.4874C152.634 29.3445 152.932 30 153.378 30.4538C153.824 30.9076 154.369 31.2101 154.964 31.4118C155.609 31.563 156.402 31.6639 157.244 31.6639C158.583 31.6135 159.723 31.563 160.764 31.4118C161.805 31.2605 162.747 31.1597 163.54 31.1093C163.639 31.1093 163.689 31.1093 163.738 31.1093C163.838 31.1093 163.887 31.1093 163.986 31.1093C164.036 31.1093 164.085 31.1093 164.135 31.1093V19.6135C164.135 19.3109 164.085 19.0588 164.085 18.7059C164.036 18.4034 163.937 18.1009 163.838 17.7983C163.689 17.4958 163.491 17.1933 163.243 16.8908C162.995 16.5882 162.648 16.3361 162.202 16.1345C161.756 15.9328 161.21 15.7311 160.516 15.5798C159.822 15.3782 158.98 15.3277 158.038 15.3277Z" fill="#343434"/>
<path d="M173.554 34.6891C173.108 34.6891 172.711 34.5882 172.364 34.4874C171.968 34.3361 171.769 34.0336 171.769 33.5294V4.68908C171.769 4.2353 171.868 3.93278 172.067 3.78152C172.265 3.63026 172.562 3.52942 173.058 3.52942C173.306 3.52942 173.554 3.57984 173.802 3.63026C174.099 3.68068 174.347 3.78152 174.545 3.93278C174.793 4.08404 174.991 4.2353 175.14 4.4874C175.289 4.7395 175.388 4.9916 175.388 5.39497V33.5294C175.388 33.7815 175.338 33.9832 175.19 34.1345C175.091 34.2857 174.942 34.3866 174.744 34.4874C174.545 34.5882 174.397 34.6387 174.198 34.6387C173.95 34.6387 173.752 34.6891 173.554 34.6891Z" fill="#343434"/>
<path d="M31.5282 55.0588C31.0821 55.0588 30.6359 55.0084 30.3385 54.9076C29.9915 54.8067 29.7436 54.7059 29.4957 54.5546C29.2479 54.4034 29.0992 54.2017 28.9504 54C28.8017 53.7983 28.7026 53.5462 28.653 53.2437C28.5539 52.9916 28.5043 52.6891 28.5043 52.3866C28.4547 52.084 28.4547 51.7815 28.4547 51.479V51.4286C28.4547 51.1261 28.4547 50.8235 28.5043 50.521C28.5539 50.2185 28.6034 49.9664 28.653 49.6639C28.7521 49.4118 28.8513 49.1597 28.9504 48.9076C29.0992 48.7059 29.2974 48.5042 29.4957 48.353C29.7436 48.2017 29.9915 48.0504 30.3385 48C30.6855 47.8992 31.0821 47.8488 31.5282 47.8488H31.5778C32.0239 47.8488 32.4701 47.8992 32.7675 48C33.1145 48.1009 33.3624 48.2017 33.6103 48.353C33.8581 48.5042 34.0068 48.7059 34.1556 48.9076C34.3043 49.1093 34.4034 49.3614 34.5026 49.6639C34.6017 49.916 34.6513 50.2185 34.6513 50.521C34.7009 50.8235 34.7009 51.1261 34.7009 51.4286V51.479C34.7009 51.7815 34.7009 52.084 34.6513 52.3866C34.6017 52.6891 34.5521 52.9412 34.5026 53.2437C34.4034 53.4958 34.3043 53.7479 34.1556 54C34.0068 54.2017 33.8086 54.4034 33.6103 54.5546C33.3624 54.7059 33.1145 54.8572 32.7675 54.9076C32.4205 55.0084 32.0239 55.0588 31.5778 55.0588H31.5282ZM31.6274 54.1513C32.0735 54.1513 32.4205 54.1009 32.6684 53.9496C32.9163 53.7983 33.1145 53.6471 33.2633 53.4454C33.412 53.2437 33.5111 52.9412 33.5607 52.6387C33.6103 52.3361 33.6598 51.9328 33.6598 51.5294V51.3277C33.6598 50.9244 33.6103 50.521 33.5607 50.2185C33.5111 49.916 33.412 49.6135 33.2633 49.4118C33.1145 49.2101 32.9163 49.0084 32.6684 48.9076C32.4205 48.8067 32.0735 48.7059 31.6274 48.7059H31.4786C31.0325 48.7059 30.6855 48.7563 30.4376 48.9076C30.1898 49.0084 29.9915 49.2101 29.8427 49.4118C29.694 49.6135 29.5949 49.916 29.5453 50.2185C29.4957 50.521 29.4462 50.9244 29.4462 51.3277V51.5294C29.4462 51.9328 29.4957 52.3361 29.5453 52.6387C29.5949 52.9412 29.694 53.2437 29.8427 53.4454C29.9915 53.6471 30.1898 53.8488 30.4376 53.9496C30.6855 54.0504 31.0325 54.1513 31.4786 54.1513H31.6274Z" fill="#343434"/>
<path d="M40.1043 49.7143C40.1043 49.916 40.2034 50.1176 40.3025 50.2185C40.4513 50.3697 40.6 50.4706 40.8478 50.5714C41.0957 50.6723 41.294 50.7227 41.5914 50.8235C41.8889 50.8739 42.1367 50.9748 42.4837 51.0252C42.7812 51.126 43.0786 51.1765 43.3761 51.2773C43.6735 51.3781 43.9214 51.479 44.1196 51.6302C44.3179 51.7815 44.5162 51.9328 44.6649 52.1849C44.8137 52.3866 44.8632 52.6387 44.8632 52.9916C44.8632 53.1429 44.8137 53.2941 44.8137 53.4454C44.7641 53.5966 44.7145 53.7479 44.6649 53.8992C44.5658 54.0504 44.4666 54.2017 44.3675 54.3529C44.2684 54.5042 44.0701 54.605 43.8718 54.7059C43.6735 54.8067 43.4256 54.9076 43.0786 54.958C42.7812 55.0588 42.3846 55.0588 41.988 55.0588C41.641 55.0588 41.294 55.0084 40.947 54.958C40.6 54.9076 40.253 54.8067 40.0051 54.7059C39.7077 54.605 39.5094 54.5042 39.3111 54.3529C39.1128 54.2017 39.0632 54.0504 39.0632 53.8992C39.0632 53.7983 39.1128 53.7479 39.1624 53.6471C39.2119 53.5462 39.3111 53.5462 39.4102 53.5462C39.5094 53.5462 39.6085 53.5966 39.7572 53.6471C39.906 53.6975 40.0547 53.7983 40.253 53.8487C40.4513 53.9496 40.6991 54 40.9966 54.0504C41.294 54.1008 41.641 54.1513 42.0376 54.1513C42.2855 54.1513 42.5333 54.1008 42.7812 54.0504C43.029 54 43.1778 53.8992 43.3761 53.8487C43.5743 53.7983 43.6735 53.6471 43.7726 53.4958C43.8718 53.3445 43.9213 53.1933 43.9213 52.9916C43.9213 52.7899 43.8222 52.5882 43.7231 52.4874C43.5743 52.3361 43.4256 52.2353 43.1778 52.1345C42.9299 52.0336 42.7316 51.9832 42.4342 51.8824C42.1367 51.8319 41.8889 51.7311 41.5419 51.6807C41.2444 51.5798 40.947 51.5294 40.6496 51.4286C40.3521 51.3277 40.1043 51.2269 39.906 51.0756C39.7077 50.9244 39.5094 50.7227 39.3607 50.521C39.2119 50.3193 39.1624 50.0168 39.1624 49.7143C39.1624 49.4118 39.2615 49.1597 39.3607 48.8571C39.5094 48.605 39.7077 48.4034 39.906 48.2521C40.1538 48.1008 40.4017 47.9496 40.7487 47.8992C41.0957 47.7983 41.4427 47.7479 41.7897 47.7479C41.9384 47.7479 42.0376 47.7479 42.2359 47.7983C42.4342 47.7983 42.5829 47.8487 42.7316 47.8487C42.9299 47.8992 43.0786 47.9496 43.2769 47.9496C43.4752 48 43.6239 48.0504 43.7726 48.1513C43.9214 48.2521 44.0701 48.3025 44.1692 48.4538C44.3179 48.5546 44.3675 48.7059 44.4171 48.8571C44.4666 48.9076 44.4666 48.958 44.4666 49.0084C44.4666 49.0588 44.4171 49.1092 44.4171 49.1597C44.3675 49.2101 44.3179 49.2605 44.2684 49.2605C44.2188 49.3109 44.1196 49.3109 44.0701 49.3109C43.9709 49.3109 43.8718 49.2605 43.7726 49.2101C43.6239 49.1597 43.5248 49.0588 43.3265 49.0084C43.1282 48.9076 42.9299 48.8571 42.6325 48.8067C42.3846 48.7563 42.0872 48.7059 41.6906 48.7059C41.3931 48.7059 41.1453 48.7563 40.8974 48.8067C40.6991 48.9076 40.5504 48.958 40.4017 49.0588C40.253 49.1597 40.2034 49.2605 40.1538 49.4118C40.1043 49.5126 40.1043 49.6134 40.1043 49.7143Z" fill="#343434"/>
<path d="M50.9111 51.7311C50.6633 51.7815 50.4154 51.8824 50.118 51.9328C49.8205 51.9832 49.5231 52.0336 49.1761 52.084C48.8291 52.1345 48.5317 52.1849 48.1846 52.2353C47.8376 52.2857 47.5898 52.3361 47.2923 52.3866C47.3419 52.6891 47.3419 52.9412 47.3915 53.1933C47.4411 53.4454 47.5402 53.5967 47.6889 53.7479C47.8376 53.8992 48.0359 54 48.2342 54.1009C48.4821 54.2017 48.7795 54.2017 49.1761 54.2017C49.5727 54.2017 49.8701 54.1513 50.1676 54.1009C50.4154 54.0504 50.6633 53.9496 50.812 53.8992C51.0103 53.7983 51.1094 53.7479 51.2086 53.6975C51.3077 53.5967 51.4069 53.5967 51.4564 53.5967C51.5556 53.5967 51.6547 53.6471 51.7043 53.6975C51.8035 53.7983 51.8035 53.8488 51.8035 53.9496C51.8035 54.1009 51.7539 54.2521 51.6052 54.353C51.4564 54.5042 51.3077 54.6051 51.1094 54.7059C50.9111 54.8067 50.6137 54.9076 50.2667 54.958C49.9693 55.0084 49.5727 55.0588 49.1761 55.0588C48.7299 55.0588 48.2838 55.0084 47.9864 54.958C47.6394 54.8572 47.3915 54.7563 47.1436 54.6555C46.9453 54.5042 46.747 54.353 46.5983 54.1513C46.4496 53.9496 46.3505 53.7479 46.3009 53.4454C46.2017 53.1933 46.2017 52.8908 46.1522 52.5883C46.1026 52.2857 46.1026 51.9832 46.1026 51.5798C46.1026 51.0252 46.1522 50.521 46.2017 50.0168C46.3009 49.563 46.4 49.1597 46.6479 48.8572C46.8462 48.5546 47.1932 48.3025 47.5898 48.1009C47.9864 47.8992 48.5317 47.8488 49.1761 47.8488C49.6223 47.8488 50.0188 47.8992 50.3658 48C50.7129 48.1009 51.0599 48.2017 51.3077 48.353C51.6052 48.5042 51.8035 48.7563 51.9522 49.0084C52.1009 49.2605 52.2 49.563 52.2 49.9664C52.2496 50.2185 52.2 50.4706 52.1505 50.6723C52.1009 50.874 52.0513 51.0252 51.9026 51.1765C51.7539 51.3277 51.6547 51.4286 51.4564 51.5294C51.4564 51.5798 51.159 51.6807 50.9111 51.7311ZM49.5727 48.6555C49.2257 48.6555 48.8787 48.7059 48.6308 48.7563C48.3829 48.8067 48.1847 48.9076 48.0359 49.0084C47.8872 49.1597 47.7385 49.2605 47.6394 49.4118C47.5402 49.563 47.4411 49.7647 47.4411 49.9664C47.3915 50.2185 47.3419 50.4202 47.3419 50.6723C47.3419 50.9244 47.2923 51.2269 47.2923 51.5294C47.4906 51.479 47.7385 51.479 48.0359 51.4286C48.3334 51.3782 48.5812 51.3277 48.8787 51.2773C49.1761 51.2269 49.4735 51.1765 49.771 51.1261C50.0684 51.0756 50.3163 51.0252 50.5146 50.9748C50.812 50.874 51.0599 50.7731 51.2086 50.6219C51.3573 50.4706 51.4069 50.2185 51.4069 49.916C51.4069 49.7143 51.3077 49.5126 51.2582 49.3614C51.159 49.2101 51.0103 49.0588 50.8616 48.958C50.7129 48.8572 50.5146 48.7563 50.3163 48.7059C50.118 48.7059 49.8205 48.6555 49.5727 48.6555Z" fill="#343434"/>
<path d="M59.0906 48.1009C59.0906 48.0504 59.1402 48 59.1402 47.9496C59.1898 47.8992 59.2393 47.8488 59.2889 47.8488C59.3385 47.7983 59.3881 47.7983 59.4376 47.7983C59.4872 47.7983 59.5864 47.7983 59.6359 47.7983C59.7846 47.7983 59.8838 47.8488 59.9829 47.8488C60.0821 47.8992 60.1317 47.9496 60.1317 48.1009V53.9496C60.1317 54.2017 60.0325 54.4034 59.8342 54.5042C59.6359 54.6555 59.3881 54.7563 59.0411 54.8067C58.694 54.9076 58.2975 54.958 57.9009 54.958C57.4547 55.0084 56.959 55.0084 56.4633 55.0084C55.9676 55.0084 55.5214 54.9076 55.1744 54.7563C54.8274 54.6051 54.5795 54.353 54.3812 54.0504C54.1829 53.7479 54.0838 53.3446 53.9846 52.9412C53.8855 52.4874 53.8855 51.9832 53.8855 51.4286V48.1009C53.8855 48.0504 53.9351 48 53.9351 47.9496C53.9846 47.8992 54.0342 47.8488 54.0838 47.8488C54.1334 47.8488 54.1829 47.7983 54.2325 47.7983C54.2821 47.7983 54.3812 47.7983 54.4308 47.7983C54.5795 47.7983 54.6787 47.8488 54.7778 47.8488C54.877 47.8992 54.9265 47.9496 54.9265 48.1009L54.877 51.0252C54.877 51.5798 54.9265 52.0336 54.9265 52.437C54.9761 52.8404 55.0752 53.1429 55.1744 53.395C55.3231 53.6471 55.4718 53.8488 55.7197 53.9496C55.9676 54.1009 56.265 54.1513 56.6616 54.1513C57.0582 54.1513 57.4052 54.1513 57.653 54.1009C57.9009 54.0504 58.1487 54.0504 58.347 54.0504C58.5453 54 58.6445 54 58.7436 53.9496C58.8428 53.8992 58.9419 53.8488 58.9419 53.7983C58.9915 53.7479 59.0411 53.6975 59.0411 53.6471C59.0411 53.5967 59.0906 53.4958 59.0906 53.4454V48.1009Z" fill="#343434"/>
<path d="M68.7077 55.0084C68.5094 55.0084 68.2616 55.0084 68.0137 55.0084C67.7658 55.0084 67.518 54.958 67.2701 54.958C67.0223 54.9076 66.824 54.8572 66.5761 54.8067C66.3282 54.7563 66.13 54.6555 65.9812 54.6051V57.479C65.9812 57.5799 65.9812 57.6303 65.9317 57.7311C65.9317 57.7815 65.8821 57.832 65.8821 57.8824C65.8325 57.9328 65.8325 57.9328 65.7829 57.9328C65.7334 57.9328 65.6838 57.9328 65.6342 57.9328C65.5351 57.9328 65.4855 57.9328 65.3864 57.8824C65.2872 57.8824 65.2376 57.832 65.1385 57.7815C65.0394 57.7311 64.9898 57.6807 64.9402 57.5798C64.8906 57.479 64.8411 57.3782 64.8411 57.2773V49.2101C64.8411 49.0084 64.8906 48.9076 65.0394 48.7563C65.1385 48.6051 65.2872 48.5042 65.4855 48.4034C65.6838 48.3025 65.8821 48.2017 66.1795 48.1513C66.477 48.1009 66.6753 48 66.9727 47.9496C67.2701 47.8992 67.518 47.8488 67.8154 47.8488C68.1129 47.7983 68.3607 47.7983 68.6582 47.7983C69.1539 47.7983 69.5505 47.8992 69.8479 48.1009C70.1949 48.3025 70.3932 48.5546 70.5915 48.9076C70.7898 49.2605 70.8889 49.6639 70.9385 50.1177C70.9881 50.5714 71.0376 51.0756 71.0376 51.6303V51.7311C71.0376 52.1849 70.9881 52.6387 70.9385 53.042C70.8889 53.4454 70.7402 53.7983 70.5915 54.1009C70.3932 54.4034 70.1949 54.6555 69.8479 54.8067C69.6 54.958 69.2035 55.0084 68.7077 55.0084ZM65.9812 53.5462C65.9812 53.6471 66.0804 53.7479 66.2291 53.7983C66.3778 53.8488 66.5761 53.9496 66.824 54C67.0718 54.0504 67.3197 54.1009 67.6171 54.1513C67.9146 54.2017 68.212 54.2017 68.5094 54.2017C68.7573 54.2017 68.906 54.2017 69.1043 54.1513C69.3026 54.1009 69.4513 54 69.6 53.8488C69.7488 53.6975 69.8479 53.4958 69.947 53.2437C70.0462 52.9916 70.0958 52.6387 70.0958 52.1849V51.3782C70.0958 50.9748 70.0462 50.6219 69.9966 50.3193C69.947 50.0168 69.8479 49.8151 69.7983 49.6135C69.6992 49.4118 69.6 49.2605 69.5009 49.1597C69.4017 49.0588 69.253 48.958 69.1539 48.9076C69.0052 48.8572 68.906 48.8067 68.7573 48.8067C68.6086 48.7563 68.4599 48.7563 68.3607 48.7563C68.0633 48.7563 67.7659 48.8067 67.4684 48.8572C67.171 48.9076 66.9727 48.958 66.7248 49.0588C66.5265 49.1597 66.3282 49.2101 66.2291 49.3109C66.0804 49.4118 66.0308 49.5126 66.0308 49.6135V53.5967H65.9812V53.5462Z" fill="#343434"/>
<path d="M75.4992 55.0588C75.053 55.0588 74.6068 55.0084 74.3094 54.9076C73.9624 54.8067 73.7145 54.7059 73.4667 54.5546C73.2188 54.4034 73.0701 54.2017 72.9214 54C72.7727 53.7983 72.6735 53.5462 72.6239 53.2437C72.5248 52.9916 72.4752 52.6891 72.4752 52.3866C72.4257 52.084 72.4257 51.7815 72.4257 51.479V51.4286C72.4257 51.1261 72.4257 50.8235 72.4752 50.521C72.5248 50.2185 72.5744 49.9664 72.6239 49.6639C72.7231 49.4118 72.8222 49.1597 72.9214 48.9076C73.0701 48.7059 73.2684 48.5042 73.4667 48.353C73.7145 48.2017 73.9624 48.0504 74.3094 48C74.6564 47.8992 75.053 47.8488 75.4992 47.8488H75.5487C75.9949 47.8488 76.441 47.8992 76.7385 48C77.0855 48.1009 77.3333 48.2017 77.5812 48.353C77.8291 48.5042 77.9778 48.7059 78.1265 48.9076C78.2752 49.1093 78.3744 49.3614 78.4735 49.6639C78.5727 49.916 78.6222 50.2185 78.6222 50.521C78.6222 50.8235 78.6718 51.1261 78.6718 51.4286V51.479C78.6718 51.7815 78.6718 52.084 78.6222 52.3866C78.5727 52.6891 78.5231 52.9412 78.4735 53.2437C78.3744 53.4958 78.2752 53.7479 78.1265 54C77.9778 54.2017 77.7795 54.4034 77.5812 54.5546C77.3333 54.7059 77.0855 54.8572 76.7385 54.9076C76.3915 55.0084 75.9949 55.0588 75.5487 55.0588H75.4992ZM75.5983 54.1513C76.0445 54.1513 76.3915 54.1009 76.6393 53.9496C76.8872 53.7983 77.0855 53.6471 77.2342 53.4454C77.3829 53.2437 77.4821 52.9412 77.5316 52.6387C77.5812 52.3361 77.6308 51.9328 77.6308 51.5294V51.3277C77.6308 50.9244 77.5812 50.521 77.5316 50.2185C77.4821 49.916 77.3829 49.6135 77.2342 49.4118C77.0855 49.2101 76.8872 49.0084 76.6393 48.9076C76.3915 48.8067 76.0445 48.7059 75.5983 48.7059H75.4496C75.0034 48.7059 74.6564 48.7563 74.4086 48.9076C74.1607 49.0084 73.9624 49.2101 73.8137 49.4118C73.665 49.6135 73.5658 49.916 73.5163 50.2185C73.4667 50.521 73.4171 50.9244 73.4171 51.3277V51.5294C73.4171 51.9328 73.4667 52.3361 73.5163 52.6387C73.5658 52.9412 73.665 53.2437 73.8137 53.4454C73.9624 53.6471 74.1607 53.8488 74.4086 53.9496C74.6564 54.0504 75.0034 54.1513 75.4496 54.1513H75.5983Z" fill="#343434"/>
<path d="M83.5795 47.8488C83.8274 47.8488 84.0752 47.8992 84.2735 47.9496C84.4718 48 84.6205 48.0504 84.7197 48.1513C84.8684 48.2521 84.918 48.3025 84.9676 48.4034C85.0171 48.5042 85.0667 48.6051 85.0667 48.7059C85.0667 48.7563 85.0667 48.8067 85.0171 48.8067C85.0171 48.8572 84.9676 48.9076 84.9676 48.9076C84.918 48.958 84.918 49.0084 84.8684 49.0084C84.8188 49.0588 84.7693 49.0588 84.6701 49.0588C84.571 49.0588 84.5214 49.0084 84.4718 49.0084C84.4223 48.958 84.3231 48.9076 84.2735 48.9076C84.1744 48.8572 84.0752 48.8067 83.9761 48.8067C83.8274 48.7563 83.6787 48.7563 83.4308 48.7563C82.9846 48.7563 82.6376 48.8067 82.3898 48.8572C82.1419 48.9076 81.9436 49.0084 81.7949 49.0588C81.6462 49.1093 81.547 49.2101 81.4975 49.3109C81.4479 49.4118 81.3983 49.4622 81.3983 49.5126V54.8572C81.3983 54.9076 81.3488 54.958 81.3488 55.0084C81.2992 55.0588 81.2496 55.1093 81.2 55.1093C81.1505 55.1597 81.1009 55.1597 81.0513 55.1597C81.0017 55.1597 80.9026 55.1597 80.853 55.1597C80.7043 55.1597 80.6052 55.1093 80.506 55.1093C80.4069 55.0588 80.3573 54.958 80.3573 54.8572V49.0588C80.3573 48.9076 80.4069 48.7563 80.506 48.6555C80.6052 48.5042 80.7043 48.4034 80.9026 48.3025C81.1009 48.2017 81.2496 48.1009 81.4479 48.0504C81.6462 47.9496 81.894 47.8992 82.1419 47.8992C82.3898 47.8488 82.6376 47.7983 82.8855 47.7983C83.0838 47.8488 83.3317 47.8488 83.5795 47.8488Z" fill="#343434"/>
<path d="M87.3966 48.7563V52.7899C87.3966 53.042 87.4462 53.2437 87.4957 53.395C87.5453 53.5462 87.6445 53.6975 87.7436 53.7983C87.8923 53.8992 88.041 54 88.1898 54C88.388 54.0504 88.5863 54.1009 88.8342 54.1009C89.0821 54.1009 89.2804 54.0504 89.4291 54C89.5778 53.9496 89.7265 53.8992 89.8257 53.8488C89.9744 53.7983 90.0239 53.7479 90.0735 53.6975C90.1231 53.6471 90.2222 53.5967 90.2718 53.5967C90.4205 53.5967 90.5197 53.6471 90.5692 53.6975C90.6188 53.7983 90.6684 53.8488 90.6684 53.9496C90.6684 54.1009 90.6188 54.2017 90.5197 54.3025C90.4205 54.4034 90.2718 54.5546 90.1231 54.6051C89.9248 54.7059 89.7265 54.8067 89.5282 54.8572C89.2804 54.9076 89.0325 54.958 88.7351 54.958C88.4376 54.958 88.1898 54.9076 87.8923 54.8572C87.5949 54.8067 87.347 54.7059 87.0992 54.5546C86.8513 54.4034 86.7026 54.2017 86.5539 53.9496C86.4051 53.6975 86.3556 53.395 86.3556 52.9412V48.6555C86.2564 48.6555 86.1573 48.6555 86.1077 48.6555C86.0581 48.6555 85.959 48.6051 85.9094 48.6051C85.8598 48.5546 85.8103 48.5042 85.7607 48.4538C85.7111 48.353 85.7111 48.3025 85.7111 48.1513C85.7111 48.0504 85.7111 48 85.7607 47.9496C85.8103 47.8992 85.8598 47.8488 85.9094 47.7983C85.959 47.7479 86.0581 47.7479 86.1077 47.7479C86.1573 47.7479 86.306 47.7479 86.4051 47.7479V46.5883C86.4051 46.437 86.4547 46.3866 86.5539 46.3362C86.653 46.2857 86.8017 46.2857 86.9009 46.2857C86.9504 46.2857 87.0496 46.2857 87.0992 46.2857C87.1487 46.2857 87.2479 46.3362 87.2479 46.3362C87.2974 46.3866 87.347 46.3866 87.3966 46.437C87.4462 46.4874 87.4462 46.5378 87.4462 46.5883V47.8992H89.6769C89.7761 47.8992 89.8257 47.8992 89.9248 47.8992C90.0239 47.8992 90.1231 47.8992 90.2222 47.9496C90.3214 48 90.371 48 90.4701 48.0504C90.5197 48.1009 90.5692 48.2017 90.5692 48.3025C90.5692 48.4034 90.5197 48.5042 90.4701 48.6051C90.4205 48.7059 90.3214 48.7563 90.2222 48.7563C90.1727 48.7563 90.0735 48.7563 89.9744 48.7563C89.8257 48.7563 89.7265 48.7563 89.5778 48.7563H87.3966Z" fill="#343434"/>
<path d="M96.5179 54.8572C96.2205 54.9076 95.9231 54.9076 95.4769 54.958C95.0803 55.0084 94.6342 55.0084 94.1384 55.0084C93.5931 55.0084 93.147 54.9076 92.8 54.7563C92.453 54.5546 92.2051 54.353 92.0068 54.0504C91.8085 53.7479 91.7094 53.395 91.6598 52.9916C91.6102 52.5883 91.5607 52.1345 91.5607 51.6807V51.5799C91.5607 50.9748 91.6102 50.4202 91.7094 49.916C91.8085 49.4622 91.9573 49.0588 92.2051 48.7563C92.4034 48.4538 92.7008 48.2017 93.0478 48.0504C93.3949 47.8992 93.7914 47.7983 94.2872 47.7983C94.535 47.7983 94.8325 47.7983 95.0803 47.8488C95.3778 47.8992 95.6256 47.8992 95.8735 47.9496C96.1214 48 96.3692 48.1009 96.6171 48.2017C96.8649 48.3025 97.0632 48.4538 97.212 48.5546C97.4102 48.7059 97.5094 48.9076 97.6085 49.1093C97.7077 49.3109 97.7573 49.563 97.7573 49.916V54.4034C97.7573 54.5546 97.7077 54.6051 97.6581 54.7059C97.6085 54.8067 97.559 54.8572 97.4598 54.9076C97.3607 54.958 97.3111 55.0084 97.212 55.0084C97.1128 55.0588 97.0137 55.0588 96.8649 55.0588L96.5179 54.8572ZM96.7658 50.1681C96.7658 50.0672 96.7658 49.9664 96.7162 49.8656C96.6667 49.7143 96.6667 49.6639 96.6171 49.563C96.5675 49.4622 96.5179 49.3614 96.4188 49.2605C96.3196 49.1597 96.2205 49.0588 96.0718 49.0084C95.9231 48.9076 95.7248 48.8572 95.5265 48.8067C95.2786 48.7563 95.0308 48.7059 94.6837 48.7059C94.535 48.7059 94.3863 48.7059 94.2376 48.7563C94.0889 48.8067 93.9402 48.8067 93.7914 48.8572C93.6427 48.9076 93.494 49.0084 93.3949 49.1093C93.2461 49.2101 93.147 49.3614 93.0478 49.563C92.9487 49.7647 92.8496 49.9664 92.8 50.2689C92.7504 50.5714 92.7008 50.874 92.7008 51.2773V51.9832C92.7008 52.437 92.7504 52.8404 92.8 53.0925C92.8991 53.395 92.9983 53.5967 93.147 53.7479C93.2957 53.8992 93.494 54 93.6923 54.0504C93.8906 54.1009 94.188 54.1513 94.4855 54.1513C94.9316 54.1513 95.3282 54.1009 95.6256 54.0504C95.9726 54 96.2701 53.9496 96.5179 53.9496C96.5675 53.9496 96.6171 53.9496 96.6667 53.9496C96.7162 53.9496 96.7658 53.9496 96.7658 54V50.1681Z" fill="#343434"/>
<path d="M100.831 54.7563C100.831 54.8571 100.781 54.8571 100.781 54.9076C100.732 54.958 100.682 55.0084 100.632 55.0084C100.583 55.0588 100.533 55.0588 100.484 55.0588C100.434 55.0588 100.335 55.0588 100.285 55.0588C100.137 55.0588 100.038 55.0084 99.9385 55.0084C99.8393 54.958 99.7897 54.8571 99.7897 54.7563V45.3277C99.7897 45.1765 99.8393 45.126 99.8889 45.0756C99.9385 45.0252 100.038 45.0252 100.186 45.0252C100.285 45.0252 100.335 45.0252 100.434 45.0756C100.533 45.126 100.583 45.126 100.682 45.1765C100.781 45.2269 100.831 45.2773 100.88 45.3277C100.93 45.4286 100.979 45.479 100.979 45.5798V54.7563H100.831Z" fill="#343434"/>
<path d="M107.721 47.8487C107.92 47.8487 108.168 47.8487 108.415 47.8992C108.663 47.9496 108.911 47.9496 109.159 48C109.407 48.0504 109.655 48.1008 109.853 48.2017C110.101 48.3025 110.299 48.3529 110.448 48.4538V45.4286C110.448 45.3277 110.448 45.2773 110.497 45.1765C110.497 45.1261 110.547 45.0756 110.547 45.0252C110.597 44.9748 110.597 44.9748 110.646 44.9748C110.696 44.9748 110.745 44.9748 110.795 44.9748C110.894 44.9748 110.944 44.9748 111.043 45.0252C111.142 45.0252 111.191 45.0756 111.291 45.1261C111.39 45.1765 111.439 45.2269 111.489 45.3277C111.538 45.4286 111.588 45.5294 111.588 45.6303V53.9496C111.588 54.1513 111.538 54.2521 111.39 54.4034C111.291 54.5546 111.142 54.6555 110.944 54.7059C110.745 54.8067 110.547 54.8571 110.25 54.9076C110.002 54.958 109.754 55.0084 109.456 55.0588C109.159 55.1092 108.911 55.1093 108.614 55.1093C108.316 55.1093 108.068 55.1597 107.771 55.1597C107.275 55.1597 106.879 55.0588 106.581 54.8571C106.284 54.6555 106.036 54.4034 105.838 54.0504C105.639 53.6975 105.54 53.2941 105.491 52.8403C105.391 52.3866 105.391 51.8824 105.391 51.3277V51.2269C105.391 50.7731 105.441 50.3193 105.491 49.916C105.54 49.5126 105.689 49.1597 105.838 48.8571C106.036 48.5546 106.234 48.3025 106.581 48.1513C106.78 47.9496 107.226 47.8487 107.721 47.8487ZM108.118 54.1513C108.415 54.1513 108.713 54.1513 109.01 54.1008C109.308 54.0504 109.506 54.0504 109.754 54C109.952 53.9496 110.15 53.8992 110.25 53.7983C110.398 53.6975 110.448 53.6471 110.448 53.5462V49.5126C110.448 49.4118 110.349 49.3109 110.2 49.2101C110.051 49.1092 109.853 49.0084 109.605 48.958C109.357 48.8571 109.109 48.8067 108.812 48.7563C108.515 48.7059 108.217 48.6555 107.92 48.6555C107.672 48.6555 107.474 48.7059 107.325 48.7059C107.127 48.7563 106.978 48.8571 106.829 49.0084C106.68 49.1597 106.581 49.3613 106.532 49.6135C106.432 49.8656 106.383 50.2185 106.383 50.6723V51.479C106.383 51.8824 106.433 52.2353 106.482 52.5378C106.532 52.8403 106.631 53.042 106.68 53.2437C106.78 53.4454 106.879 53.5966 106.978 53.6975C107.077 53.7983 107.226 53.8992 107.325 53.9496C107.474 54 107.573 54.0504 107.721 54.0504C107.87 54.1513 108.019 54.1513 108.118 54.1513Z" fill="#343434"/>
<path d="M117.834 51.7311C117.586 51.7815 117.338 51.8824 117.041 51.9328C116.744 51.9832 116.446 52.0336 116.099 52.084C115.752 52.1345 115.455 52.1849 115.108 52.2353C114.761 52.2857 114.513 52.3361 114.215 52.3866C114.265 52.6891 114.265 52.9412 114.315 53.1933C114.364 53.4454 114.463 53.5967 114.612 53.7479C114.761 53.8992 114.959 54 115.157 54.1009C115.405 54.2017 115.703 54.2017 116.099 54.2017C116.496 54.2017 116.793 54.1513 117.091 54.1009C117.338 54.0504 117.586 53.9496 117.735 53.8992C117.933 53.7983 118.032 53.7479 118.132 53.6975C118.231 53.6471 118.33 53.5967 118.379 53.5967C118.479 53.5967 118.578 53.6471 118.627 53.6975C118.726 53.7983 118.726 53.8488 118.726 53.9496C118.726 54.1009 118.677 54.2521 118.528 54.353C118.379 54.5042 118.231 54.6051 118.032 54.7059C117.785 54.8067 117.537 54.9076 117.19 54.958C116.892 55.0084 116.496 55.0588 116.099 55.0588C115.653 55.0588 115.207 55.0084 114.909 54.958C114.562 54.8572 114.315 54.7563 114.067 54.6555C113.868 54.5042 113.67 54.353 113.521 54.1513C113.373 53.9496 113.273 53.7479 113.224 53.4454C113.125 53.1933 113.125 52.8908 113.075 52.5883C113.026 52.2857 113.026 51.9832 113.026 51.5798C113.026 51.0252 113.075 50.521 113.125 50.0168C113.224 49.563 113.323 49.1597 113.571 48.8572C113.769 48.5546 114.116 48.3025 114.513 48.1009C114.909 47.8992 115.455 47.8488 116.099 47.8488C116.545 47.8488 116.942 47.8992 117.289 48C117.636 48.1009 117.983 48.2017 118.231 48.353C118.528 48.5042 118.726 48.7563 118.875 49.0084C119.024 49.2605 119.123 49.563 119.123 49.9664C119.173 50.2185 119.123 50.4706 119.073 50.6723C119.024 50.874 118.974 51.0252 118.826 51.1765C118.726 51.3277 118.578 51.4286 118.379 51.5294C118.379 51.5798 118.132 51.6807 117.834 51.7311ZM116.545 48.6555C116.198 48.6555 115.851 48.7059 115.603 48.7563C115.356 48.8067 115.157 48.9076 115.009 49.0084C114.86 49.1597 114.711 49.2605 114.612 49.4118C114.513 49.563 114.414 49.7647 114.414 49.9664C114.414 50.1681 114.315 50.4202 114.315 50.6723C114.265 50.9244 114.265 51.2269 114.265 51.5294C114.463 51.479 114.711 51.479 115.009 51.4286C115.306 51.3782 115.554 51.3277 115.851 51.2773C116.149 51.2269 116.446 51.1765 116.744 51.1261C117.041 51.0756 117.289 51.0252 117.487 50.9748C117.785 50.874 118.032 50.7731 118.181 50.6219C118.33 50.4706 118.379 50.2185 118.379 49.916C118.379 49.7143 118.28 49.5126 118.231 49.3614C118.132 49.2101 117.983 49.0588 117.834 48.958C117.685 48.8572 117.487 48.7563 117.289 48.7059C116.942 48.7059 116.744 48.6555 116.545 48.6555Z" fill="#343434"/>
<path d="M124.675 49.7143C124.675 49.916 124.774 50.1176 124.874 50.2185C125.022 50.3697 125.171 50.4706 125.419 50.5714C125.667 50.6723 125.865 50.7227 126.162 50.8235C126.46 50.8739 126.708 50.9748 127.055 51.0252C127.352 51.126 127.65 51.1765 127.947 51.2773C128.244 51.3781 128.492 51.479 128.691 51.6302C128.938 51.7815 129.087 51.9328 129.236 52.1849C129.385 52.3866 129.434 52.6387 129.434 52.9916C129.434 53.1429 129.385 53.2941 129.385 53.4454C129.335 53.5966 129.286 53.7479 129.236 53.8992C129.137 54.0504 129.038 54.2017 128.938 54.3529C128.79 54.5042 128.641 54.605 128.443 54.7059C128.244 54.8067 127.997 54.9076 127.65 54.958C127.352 55.0084 126.956 55.0588 126.559 55.0588C126.212 55.0588 125.865 55.0084 125.518 54.958C125.171 54.9076 124.824 54.8067 124.576 54.7059C124.279 54.605 124.08 54.5042 123.882 54.3529C123.684 54.2017 123.634 54.0504 123.634 53.8992C123.634 53.7983 123.684 53.7479 123.733 53.6471C123.783 53.5462 123.882 53.5462 123.981 53.5462C124.08 53.5462 124.18 53.5966 124.328 53.6471C124.477 53.6975 124.626 53.7983 124.824 53.8487C125.022 53.9496 125.27 54 125.568 54.0504C125.865 54.1008 126.212 54.1513 126.609 54.1513C126.856 54.1513 127.104 54.1008 127.352 54.0504C127.6 54 127.749 53.8992 127.947 53.8487C128.145 53.7983 128.244 53.6471 128.344 53.4958C128.443 53.3445 128.492 53.1933 128.492 52.9916C128.492 52.7899 128.393 52.5882 128.294 52.4874C128.145 52.3361 127.997 52.2353 127.749 52.1345C127.501 52.0336 127.303 51.9832 127.005 51.8824C126.708 51.8319 126.46 51.7311 126.113 51.6807C125.815 51.5798 125.518 51.5294 125.221 51.4286C124.923 51.3277 124.675 51.2269 124.477 51.0756C124.229 50.9244 124.08 50.7227 123.932 50.521C123.783 50.3193 123.733 50.0168 123.733 49.7143C123.733 49.4118 123.833 49.1597 123.932 48.8571C124.08 48.605 124.279 48.4034 124.477 48.2521C124.725 48.1008 124.973 47.9496 125.32 47.8992C125.667 47.7983 126.014 47.7479 126.361 47.7479C126.509 47.7479 126.609 47.7479 126.807 47.7983C127.005 47.7983 127.154 47.8487 127.303 47.8487C127.501 47.8992 127.65 47.9496 127.848 47.9496C128.046 48 128.195 48.0504 128.344 48.1513C128.492 48.2521 128.641 48.3025 128.74 48.4538C128.889 48.5546 128.938 48.7059 128.988 48.8571C129.038 48.9076 129.038 48.958 129.038 49.0084C129.038 49.0588 128.988 49.1092 128.988 49.1597C128.938 49.2101 128.889 49.2605 128.839 49.2605C128.79 49.3109 128.691 49.3109 128.641 49.3109C128.542 49.3109 128.443 49.2605 128.344 49.2101C128.195 49.1597 128.096 49.0588 127.897 49.0084C127.699 48.9076 127.501 48.8571 127.203 48.8067C126.956 48.7059 126.658 48.7059 126.262 48.7059C125.964 48.7059 125.716 48.7563 125.468 48.8067C125.27 48.9076 125.121 48.958 124.973 49.0588C124.824 49.1597 124.774 49.2605 124.725 49.4118C124.675 49.5126 124.675 49.6134 124.675 49.7143Z" fill="#343434"/>
<path d="M135.433 51.7311C135.185 51.7815 134.937 51.8824 134.639 51.9328C134.342 51.9832 134.044 52.0336 133.697 52.084C133.35 52.1345 133.053 52.1849 132.706 52.2353C132.359 52.2857 132.111 52.3361 131.814 52.3866C131.863 52.6891 131.863 52.9412 131.913 53.1933C131.962 53.4454 132.062 53.5967 132.21 53.7479C132.359 53.8992 132.557 54 132.756 54.1009C132.954 54.2017 133.301 54.2017 133.697 54.2017C134.094 54.2017 134.391 54.1513 134.689 54.1009C134.986 54.0504 135.185 53.9496 135.333 53.8992C135.532 53.7983 135.631 53.7479 135.73 53.6975C135.829 53.6471 135.928 53.5967 135.978 53.5967C136.077 53.5967 136.176 53.6471 136.226 53.6975C136.325 53.7983 136.325 53.8488 136.325 53.9496C136.325 54.1009 136.275 54.2521 136.127 54.353C135.978 54.4538 135.829 54.6051 135.631 54.7059C135.383 54.8067 135.135 54.9076 134.788 54.958C134.491 55.0084 134.094 55.0588 133.697 55.0588C133.251 55.0588 132.805 55.0084 132.508 54.958C132.161 54.8572 131.913 54.7563 131.665 54.6555C131.417 54.5042 131.268 54.353 131.12 54.1513C130.971 53.9496 130.872 53.7479 130.822 53.4454C130.723 53.1933 130.723 52.8908 130.674 52.5883C130.624 52.2857 130.624 51.9832 130.624 51.5798C130.624 51.0252 130.674 50.521 130.723 50.0168C130.822 49.563 130.921 49.1597 131.169 48.8572C131.368 48.5546 131.715 48.3025 132.111 48.1009C132.508 47.8992 133.053 47.8488 133.697 47.8488C134.144 47.8488 134.54 47.8992 134.887 48C135.234 48.1009 135.581 48.2017 135.829 48.353C136.127 48.5042 136.325 48.7563 136.474 49.0084C136.622 49.2605 136.721 49.563 136.721 49.9664C136.771 50.2185 136.721 50.4706 136.672 50.6723C136.622 50.874 136.573 51.0252 136.424 51.1765C136.325 51.3277 136.176 51.4286 135.978 51.5294C136.027 51.5798 135.78 51.6807 135.433 51.7311ZM134.144 48.6555C133.797 48.6555 133.45 48.7059 133.202 48.7563C132.954 48.8067 132.756 48.9076 132.607 49.0084C132.458 49.1597 132.309 49.2605 132.21 49.4118C132.111 49.563 132.012 49.7647 132.012 49.9664C131.962 50.2185 131.913 50.4202 131.913 50.6723C131.863 50.9244 131.863 51.2269 131.863 51.5294C132.062 51.479 132.309 51.479 132.607 51.4286C132.904 51.3782 133.152 51.3277 133.45 51.2773C133.747 51.2269 134.044 51.1765 134.342 51.1261C134.639 51.0756 134.887 51.0252 135.086 50.9748C135.383 50.874 135.631 50.7731 135.78 50.6219C135.928 50.4706 135.978 50.2185 135.978 49.916C135.978 49.7143 135.879 49.5126 135.829 49.3614C135.73 49.2101 135.581 49.0588 135.433 48.958C135.284 48.8572 135.086 48.7563 134.887 48.7059C134.689 48.7059 134.342 48.6555 134.144 48.6555Z" fill="#343434"/>
<path d="M141.778 47.8488C142.026 47.8488 142.273 47.8992 142.472 47.9496C142.67 48 142.819 48.0504 142.918 48.1513C143.067 48.2521 143.116 48.3025 143.166 48.4034C143.215 48.5042 143.265 48.6051 143.265 48.7059C143.265 48.7563 143.265 48.8067 143.215 48.8067C143.215 48.8572 143.166 48.9076 143.166 48.9076C143.116 48.958 143.116 49.0084 143.067 49.0084C143.017 49.0588 142.968 49.0588 142.868 49.0588C142.769 49.0588 142.72 49.0084 142.67 49.0084C142.62 48.958 142.521 48.9076 142.472 48.9076C142.373 48.8572 142.273 48.8067 142.174 48.8067C142.026 48.7563 141.877 48.7563 141.629 48.7563C141.183 48.7563 140.836 48.8067 140.588 48.8572C140.34 48.9076 140.142 49.0084 139.993 49.0588C139.844 49.1093 139.745 49.2101 139.696 49.3109C139.646 49.4118 139.597 49.4622 139.597 49.5126V54.8572C139.597 54.9076 139.547 54.958 139.547 55.0084C139.497 55.0588 139.448 55.1093 139.398 55.1093C139.349 55.1597 139.299 55.1597 139.25 55.1597C139.2 55.1597 139.101 55.1597 139.051 55.1597C138.903 55.1597 138.803 55.1093 138.704 55.1093C138.605 55.0588 138.556 54.958 138.556 54.8572V49.0588C138.556 48.9076 138.605 48.7563 138.704 48.6555C138.803 48.5042 138.903 48.4034 139.101 48.3025C139.25 48.2017 139.448 48.1009 139.646 48.0504C139.844 47.9496 140.092 47.8992 140.34 47.8992C140.588 47.8488 140.836 47.7983 141.084 47.7983C141.332 47.8488 141.53 47.8488 141.778 47.8488Z" fill="#343434"/>
<path d="M149.511 48.3025C149.561 48.1513 149.61 48.1009 149.61 48C149.61 47.8992 149.66 47.8992 149.709 47.8488C149.759 47.7983 149.809 47.7983 149.809 47.7983C149.858 47.7983 149.908 47.7983 150.007 47.7983C150.056 47.7983 150.156 47.7983 150.255 47.8488C150.354 47.8992 150.403 47.8992 150.503 48C150.602 48.1009 150.602 48.1513 150.651 48.2017C150.701 48.3025 150.701 48.4034 150.602 48.5546L148.52 54.2017C148.47 54.4034 148.371 54.5042 148.321 54.6051C148.222 54.7059 148.173 54.8067 148.074 54.8572C147.974 54.9076 147.875 54.958 147.727 54.958C147.578 54.958 147.479 55.0084 147.33 55.0084H147.181C147.033 55.0084 146.933 55.0084 146.785 54.958C146.636 54.9076 146.537 54.9076 146.438 54.8572C146.338 54.8067 146.239 54.7059 146.19 54.6051C146.091 54.5042 146.041 54.353 145.991 54.2017L143.909 48.5546C143.86 48.4034 143.86 48.3025 143.86 48.2017C143.86 48.1009 143.959 48.0504 144.009 48C144.058 47.9496 144.157 47.8992 144.207 47.8488C144.256 47.7983 144.356 47.7983 144.455 47.7983C144.554 47.7983 144.603 47.7983 144.653 47.7983C144.703 47.7983 144.752 47.8488 144.752 47.8488C144.802 47.8992 144.802 47.9496 144.851 48C144.901 48.0504 144.901 48.1513 144.95 48.3025L146.933 53.8992C146.983 54 146.983 54.0504 147.033 54.0504C147.082 54.1009 147.132 54.1009 147.231 54.1009H147.28C147.38 54.1009 147.429 54.0504 147.479 54.0504C147.528 54 147.578 53.9496 147.578 53.8992L149.511 48.3025Z" fill="#343434"/>
<path d="M151.841 45.3277C151.841 45.2773 151.891 45.2269 151.891 45.1765C151.94 45.126 151.99 45.0756 152.039 45.0756C152.089 45.0252 152.139 45.0252 152.188 45.0252C152.238 45.0252 152.337 45.0252 152.386 45.0252C152.535 45.0252 152.634 45.0756 152.733 45.0756C152.833 45.126 152.882 45.2269 152.882 45.3277V46.3866C152.882 46.4874 152.833 46.4874 152.833 46.5378C152.783 46.5882 152.733 46.6387 152.684 46.6387C152.634 46.6891 152.585 46.6891 152.535 46.6891C152.486 46.6891 152.386 46.6891 152.337 46.6891C152.188 46.6891 152.089 46.6387 151.99 46.6387C151.891 46.5882 151.841 46.4874 151.841 46.3866V45.3277ZM152.882 54.7563C152.882 54.8571 152.833 54.8571 152.833 54.9076C152.783 54.958 152.733 55.0084 152.684 55.0084C152.634 55.0588 152.585 55.0588 152.535 55.0588C152.486 55.0588 152.386 55.0588 152.337 55.0588C152.188 55.0588 152.089 55.0084 151.99 55.0084C151.891 54.958 151.841 54.8571 151.841 54.7563V48.1513C151.841 48.1008 151.891 48.0504 151.891 48C151.94 47.9496 151.99 47.8992 152.039 47.8992C152.089 47.8487 152.139 47.8487 152.188 47.8487C152.238 47.8487 152.337 47.8487 152.386 47.8487C152.535 47.8487 152.634 47.8992 152.733 47.8992C152.833 47.9496 152.882 48.0504 152.882 48.1513V54.7563Z" fill="#343434"/>
<path d="M157.591 55.0588C157.145 55.0588 156.699 55.0084 156.402 54.958C156.055 54.8572 155.807 54.7563 155.559 54.6555C155.361 54.5042 155.162 54.353 155.014 54.1513C154.865 53.9496 154.766 53.7479 154.716 53.4454C154.617 53.1933 154.617 52.8908 154.568 52.5883C154.518 52.2857 154.518 51.9832 154.518 51.5798V51.3277C154.518 50.9748 154.518 50.6219 154.568 50.3193C154.617 50.0168 154.617 49.7143 154.716 49.4622C154.815 49.2101 154.915 49.0084 155.014 48.7563C155.162 48.5546 155.311 48.4034 155.559 48.2521C155.807 48.1009 156.055 48 156.402 47.9496C156.749 47.8488 157.145 47.8488 157.591 47.8488C157.988 47.8488 158.385 47.8992 158.682 47.9496C158.979 48 159.277 48.1009 159.525 48.2017C159.773 48.3025 159.921 48.4034 160.02 48.5546C160.169 48.7059 160.219 48.8067 160.219 48.958C160.219 49.0084 160.219 49.0588 160.169 49.1093C160.169 49.1597 160.12 49.2101 160.12 49.2605C160.07 49.3109 160.02 49.3614 160.02 49.3614C160.02 49.3614 159.921 49.4118 159.822 49.4118C159.723 49.4118 159.673 49.3614 159.574 49.3109C159.475 49.2605 159.326 49.2101 159.178 49.1093C158.979 49.0084 158.781 48.958 158.484 48.9076C158.186 48.8572 157.889 48.8067 157.443 48.8572C157.145 48.8572 156.897 48.9076 156.699 48.958C156.501 49.0084 156.303 49.1093 156.104 49.2101C155.956 49.3614 155.807 49.563 155.757 49.8151C155.658 50.1177 155.609 50.4706 155.609 50.9244V52.0336C155.609 52.3361 155.658 52.6387 155.658 52.8908C155.708 53.1429 155.757 53.395 155.906 53.5967C156.055 53.7983 156.203 53.9496 156.451 54.0504C156.699 54.1513 156.997 54.2017 157.443 54.2017C157.79 54.2017 158.087 54.1513 158.385 54.1513C158.682 54.1009 158.93 54.0504 159.178 53.9496C159.277 53.8992 159.326 53.8488 159.376 53.8488C159.426 53.7983 159.525 53.7479 159.574 53.7479C159.624 53.7479 159.674 53.6975 159.723 53.6471C159.773 53.5967 159.822 53.5967 159.872 53.5967C160.021 53.5967 160.12 53.6471 160.169 53.6975C160.219 53.7983 160.268 53.8488 160.268 53.9496C160.268 54.1009 160.219 54.2521 160.07 54.353C159.921 54.5042 159.773 54.6051 159.574 54.7059C159.326 54.8067 159.079 54.9076 158.732 54.958C158.335 55.1597 158.038 55.0588 157.591 55.0588ZM156.947 54.6051H157.74V55.5126C158.236 55.563 158.632 55.7143 158.831 55.9664C159.079 56.2185 159.227 56.5714 159.227 56.9748C159.227 57.2269 159.178 57.479 159.128 57.6807C159.079 57.8824 158.93 58.0336 158.781 58.1345C158.632 58.2857 158.434 58.3362 158.186 58.3866C157.938 58.437 157.641 58.4874 157.294 58.4874H157.145C157.096 58.4874 157.046 58.437 156.997 58.3361C156.947 58.2353 156.947 58.1345 156.947 58.0336C156.947 57.9328 156.997 57.8319 156.997 57.7311C157.046 57.6303 157.096 57.5798 157.195 57.5798H157.294C157.492 57.5798 157.691 57.5798 157.79 57.5294C157.938 57.479 158.038 57.479 158.087 57.4286C158.186 57.3782 158.236 57.2773 158.236 57.2269C158.285 57.1261 158.285 57.0252 158.285 56.874C158.285 56.5714 158.186 56.4202 158.038 56.3193C157.889 56.2185 157.641 56.1681 157.244 56.1681H157.145C157.096 56.1681 157.046 56.1177 156.997 56.0672C156.947 56.0168 156.897 55.916 156.897 55.8151L156.947 54.6051Z" fill="#343434"/>
<path d="M164.482 55.0588C164.036 55.0588 163.59 55.0084 163.292 54.9076C162.945 54.8067 162.697 54.7059 162.45 54.5546C162.202 54.4034 162.053 54.2017 161.904 54C161.756 53.7983 161.656 53.5462 161.607 53.2437C161.557 52.9916 161.458 52.6891 161.458 52.3866C161.409 52.084 161.409 51.7815 161.409 51.479V51.4286C161.409 51.1261 161.409 50.8235 161.458 50.521C161.508 50.2185 161.557 49.9664 161.607 49.6639C161.706 49.4118 161.805 49.1597 161.904 48.9076C162.053 48.7059 162.251 48.5042 162.45 48.353C162.697 48.2017 162.945 48.0504 163.292 48C163.639 47.8992 164.036 47.8488 164.482 47.8488H164.532C164.978 47.8488 165.424 47.8992 165.721 48C166.068 48.1009 166.316 48.2017 166.564 48.353C166.812 48.5042 166.961 48.7059 167.109 48.9076C167.258 49.1093 167.357 49.3614 167.456 49.6639C167.556 49.916 167.605 50.2185 167.605 50.521C167.605 50.8235 167.655 51.1261 167.655 51.4286V51.479C167.655 51.7815 167.655 52.084 167.605 52.3866C167.556 52.6891 167.506 52.9412 167.456 53.2437C167.357 53.4958 167.258 53.7479 167.109 54C166.961 54.2017 166.762 54.4034 166.564 54.5546C166.316 54.7059 166.068 54.8572 165.721 54.9076C165.374 55.0084 164.978 55.0588 164.532 55.0588H164.482ZM164.532 54.1513C164.978 54.1513 165.325 54.1009 165.573 53.9496C165.821 53.8488 166.019 53.6471 166.168 53.4454C166.316 53.2437 166.415 52.9412 166.465 52.6387C166.515 52.3361 166.564 51.9328 166.564 51.5294V51.3277C166.564 50.9244 166.515 50.521 166.465 50.2185C166.415 49.916 166.316 49.6135 166.168 49.4118C166.019 49.2101 165.821 49.0084 165.573 48.9076C165.325 48.8067 164.978 48.7059 164.532 48.7059H164.383C163.937 48.7059 163.59 48.7563 163.342 48.9076C163.094 49.0084 162.896 49.2101 162.747 49.4118C162.598 49.6135 162.499 49.916 162.45 50.2185C162.4 50.521 162.35 50.9244 162.35 51.3277V51.5294C162.35 51.9328 162.4 52.3361 162.45 52.6387C162.499 52.9412 162.598 53.2437 162.747 53.4454C162.896 53.6471 163.094 53.8488 163.342 53.9496C163.59 54.0504 163.937 54.1513 164.383 54.1513H164.532Z" fill="#343434"/>
<path d="M170.183 49.7143C170.183 49.916 170.282 50.1176 170.381 50.2185C170.48 50.3193 170.679 50.4706 170.927 50.5714C171.174 50.6723 171.373 50.7227 171.67 50.8235C171.968 50.8739 172.215 50.9748 172.562 51.0252C172.86 51.126 173.157 51.1765 173.455 51.2773C173.752 51.3781 174 51.479 174.198 51.6302C174.446 51.7815 174.595 51.9328 174.744 52.1849C174.892 52.3866 174.942 52.6387 174.942 52.9916C174.942 53.1429 174.892 53.2941 174.892 53.4454C174.843 53.5966 174.793 53.7479 174.744 53.8992C174.644 54.0504 174.545 54.2017 174.446 54.3529C174.347 54.5042 174.149 54.605 173.95 54.7059C173.752 54.8067 173.504 54.9076 173.157 54.958C172.86 55.0084 172.463 55.0588 172.067 55.0588C171.72 55.0588 171.373 55.0084 171.026 54.958C170.679 54.9076 170.332 54.8067 170.084 54.7059C169.786 54.605 169.588 54.5042 169.39 54.3529C169.191 54.2017 169.142 54.0504 169.142 53.8992C169.142 53.7983 169.191 53.7479 169.241 53.6471C169.291 53.5462 169.39 53.5462 169.489 53.5462C169.588 53.5462 169.687 53.5966 169.836 53.6471C169.985 53.6975 170.133 53.7983 170.332 53.8487C170.53 53.9496 170.778 54 171.075 54.0504C171.373 54.1008 171.72 54.1513 172.116 54.1513C172.364 54.1513 172.612 54.1008 172.86 54.0504C173.108 54 173.256 53.8992 173.455 53.8487C173.653 53.7983 173.752 53.6471 173.851 53.4958C173.95 53.3445 174 53.1933 174 52.9916C174 52.7899 173.901 52.5882 173.802 52.4874C173.703 52.3866 173.504 52.2353 173.256 52.1345C173.009 52.0336 172.81 51.9832 172.513 51.8824C172.215 51.8319 171.968 51.7311 171.621 51.6807C171.274 51.6302 171.026 51.5294 170.728 51.4286C170.431 51.3277 170.183 51.2269 169.985 51.0756C169.737 50.9244 169.588 50.7227 169.439 50.521C169.291 50.3193 169.241 50.0168 169.241 49.7143C169.241 49.4118 169.34 49.1597 169.439 48.8571C169.588 48.605 169.786 48.4034 169.985 48.2521C170.232 48.1008 170.48 47.9496 170.827 47.8992C171.174 47.8487 171.521 47.7479 171.868 47.7479C172.017 47.7479 172.116 47.7479 172.315 47.7983C172.513 47.7983 172.662 47.8487 172.81 47.8487C173.009 47.8992 173.157 47.9496 173.356 47.9496C173.554 48 173.703 48.0504 173.851 48.1513C174 48.2521 174.149 48.3025 174.248 48.4538C174.397 48.5546 174.446 48.7059 174.496 48.8571C174.545 48.9076 174.545 48.958 174.545 49.0084C174.545 49.0588 174.496 49.1092 174.496 49.1597C174.446 49.2101 174.397 49.2605 174.347 49.2605C174.297 49.3109 174.198 49.3109 174.149 49.3109C174.05 49.3109 173.95 49.2605 173.851 49.2101C173.703 49.1597 173.603 49.0588 173.405 49.0084C173.207 48.9076 173.009 48.8571 172.711 48.8067C172.463 48.7059 172.166 48.7059 171.769 48.7059C171.472 48.7059 171.224 48.7563 170.976 48.8067C170.778 48.9076 170.629 48.958 170.48 49.0588C170.332 49.1597 170.282 49.2605 170.232 49.4118C170.232 49.5126 170.183 49.6134 170.183 49.7143Z" fill="#343434"/>
<path d="M183.221 55.0084C183.022 55.0084 182.774 55.0084 182.527 55.0084C182.279 55.0084 182.031 54.958 181.783 54.958C181.535 54.9076 181.337 54.8572 181.089 54.8067C180.841 54.7563 180.643 54.6555 180.494 54.6051V57.479C180.494 57.5799 180.494 57.6303 180.444 57.7311C180.444 57.7815 180.395 57.832 180.395 57.8824C180.345 57.9328 180.345 57.9328 180.296 57.9328C180.246 57.9328 180.197 57.9328 180.147 57.9328C180.048 57.9328 179.998 57.9328 179.899 57.8824C179.8 57.8824 179.75 57.832 179.651 57.7815C179.552 57.7311 179.503 57.6807 179.453 57.5798C179.403 57.479 179.354 57.3782 179.354 57.2773V49.2101C179.354 49.0084 179.403 48.9076 179.552 48.7563C179.651 48.6051 179.8 48.5042 179.998 48.4034C180.197 48.3025 180.395 48.2017 180.692 48.1513C180.94 48.0504 181.188 48 181.486 47.9496C181.783 47.8992 182.031 47.8488 182.328 47.8488C182.626 47.7983 182.874 47.7983 183.171 47.7983C183.667 47.7983 184.063 47.8992 184.361 48.1009C184.658 48.3025 184.906 48.5546 185.104 48.9076C185.303 49.2605 185.402 49.6639 185.451 50.1177C185.55 50.5714 185.55 51.0756 185.55 51.6303V51.7311C185.55 52.1849 185.501 52.6387 185.451 53.042C185.402 53.4454 185.253 53.7983 185.104 54.1009C184.906 54.4034 184.708 54.6555 184.361 54.8067C184.162 54.958 183.766 55.0084 183.221 55.0084ZM180.494 53.5462C180.494 53.6471 180.593 53.7479 180.742 53.7983C180.891 53.8488 181.089 53.9496 181.337 54C181.585 54.0504 181.833 54.1009 182.13 54.1513C182.427 54.2017 182.725 54.2017 183.022 54.2017C183.27 54.2017 183.419 54.2017 183.617 54.1513C183.815 54.1009 183.964 54 184.113 53.8488C184.262 53.6975 184.361 53.4958 184.46 53.2437C184.559 52.9916 184.609 52.6387 184.609 52.1849V51.3782C184.609 50.9748 184.559 50.6219 184.509 50.3193C184.46 50.0168 184.361 49.8151 184.311 49.6135C184.212 49.4118 184.113 49.2605 184.014 49.1597C183.915 49.0588 183.766 48.958 183.667 48.9076C183.568 48.8572 183.419 48.8067 183.27 48.8067C183.121 48.7563 182.973 48.7563 182.874 48.7563C182.576 48.7563 182.279 48.8067 181.981 48.8572C181.684 48.9076 181.486 48.958 181.238 49.0588C181.039 49.1597 180.841 49.2101 180.742 49.3109C180.593 49.4118 180.544 49.5126 180.544 49.6135V53.5967H180.494V53.5462Z" fill="#343434"/>
<path d="M192.391 48.1008C192.391 48.0504 192.441 48 192.441 47.9496C192.491 47.8992 192.54 47.8487 192.59 47.8487C192.639 47.7983 192.689 47.7983 192.738 47.7983C192.788 47.7983 192.887 47.7983 192.937 47.7983C193.085 47.7983 193.185 47.8487 193.284 47.8487C193.383 47.8992 193.432 47.9496 193.432 48.1008V53.9496C193.432 54.2017 193.333 54.4034 193.135 54.5042C192.937 54.6555 192.689 54.7563 192.342 54.8067C191.995 54.9076 191.598 54.958 191.202 54.958C190.756 55.0084 190.26 55.0084 189.764 55.0084C189.268 55.0084 188.822 54.9076 188.475 54.7563C188.128 54.605 187.88 54.3529 187.682 54.0504C187.484 53.7479 187.385 53.3445 187.285 52.9412C187.186 52.4874 187.186 51.9832 187.186 51.4286V48.1008C187.186 48.0504 187.236 48 187.236 47.9496C187.285 47.8992 187.335 47.8487 187.385 47.8487C187.434 47.7983 187.484 47.7983 187.533 47.7983C187.583 47.7983 187.682 47.7983 187.732 47.7983C187.88 47.7983 187.979 47.8487 188.079 47.8487C188.178 47.8992 188.227 47.9496 188.227 48.1008L188.178 51.0252C188.178 51.5798 188.227 52.0336 188.227 52.437C188.277 52.8403 188.376 53.1429 188.475 53.395C188.574 53.6471 188.773 53.8487 189.021 53.9496C189.268 54.0504 189.566 54.1513 189.962 54.1513C190.359 54.1513 190.706 54.1513 190.954 54.1008C191.202 54.0504 191.45 54.0504 191.648 54.0504C191.846 54 191.945 54 192.044 53.9496C192.144 53.8992 192.243 53.8487 192.243 53.7983C192.292 53.7479 192.342 53.6975 192.342 53.6471C192.342 53.5966 192.391 53.4958 192.391 53.4454V48.1008ZM190.607 45.3277C190.656 45.1765 190.756 45.126 190.855 45.0756C190.954 45.0252 191.053 45.0252 191.152 45.0252C191.251 45.0252 191.301 45.0252 191.35 45.0756C191.45 45.126 191.499 45.126 191.549 45.1765C191.598 45.2269 191.648 45.2773 191.648 45.3277C191.697 45.3781 191.697 45.4286 191.598 45.479L190.855 46.7899C190.756 46.9412 190.706 47.042 190.607 47.042C190.508 47.0924 190.409 47.0924 190.26 47.0924C190.161 47.0924 190.111 47.0924 190.062 47.042C189.962 46.9916 189.913 46.9916 189.863 46.9412C189.814 46.8908 189.764 46.8403 189.764 46.7899C189.715 46.7395 189.764 46.6891 189.814 46.5882L190.607 45.3277Z" fill="#343434"/>
<path d="M196.159 48.4538C196.357 48.3529 196.556 48.2521 196.754 48.2017C197.002 48.1008 197.2 48.0504 197.448 48C197.696 47.9496 197.944 47.8992 198.191 47.8992C198.439 47.8487 198.638 47.8487 198.886 47.8487C199.381 47.8487 199.827 47.9496 200.125 48.1008C200.422 48.3025 200.67 48.5042 200.868 48.8067C201.067 49.1093 201.166 49.4622 201.215 49.8656C201.265 50.2689 201.315 50.7227 201.315 51.1765V51.2773C201.315 51.8319 201.265 52.3361 201.215 52.7899C201.166 53.2437 201.017 53.6471 200.868 54C200.67 54.3529 200.472 54.605 200.125 54.8067C199.778 55.0084 199.381 55.1093 198.935 55.1093C198.687 55.1093 198.39 55.1093 198.092 55.0588C197.795 55.0588 197.547 55.0084 197.25 55.0084C196.952 54.958 196.704 54.9076 196.456 54.8572C196.209 54.8067 195.961 54.7059 195.762 54.6555C195.564 54.5546 195.415 54.4538 195.316 54.353C195.217 54.2017 195.118 54.1009 195.118 53.8992V45.5798C195.118 45.4286 195.168 45.3277 195.217 45.2773C195.267 45.1765 195.316 45.1261 195.415 45.0756C195.515 45.0252 195.564 45.0252 195.663 44.9748C195.762 44.9748 195.812 44.9244 195.911 44.9244C195.961 44.9244 196.01 44.9244 196.06 44.9244C196.109 44.9244 196.159 44.9748 196.159 44.9748C196.209 45.0252 196.209 45.0756 196.209 45.1261C196.209 45.1765 196.258 45.2773 196.258 45.3782V48.4034H196.159V48.4538ZM198.687 48.7059C198.39 48.7059 198.092 48.7563 197.795 48.8067C197.497 48.8572 197.25 48.9076 197.002 49.0084C196.754 49.1093 196.556 49.1597 196.407 49.2605C196.258 49.3614 196.159 49.4622 196.159 49.563V53.5966C196.159 53.6975 196.209 53.7983 196.357 53.8488C196.506 53.9496 196.655 54 196.853 54.0504C197.051 54.1008 197.299 54.1513 197.597 54.1513C197.894 54.2017 198.142 54.2017 198.489 54.2017C198.638 54.2017 198.737 54.2017 198.886 54.1513C199.034 54.1513 199.183 54.1008 199.282 54.0504C199.431 54 199.53 53.8992 199.629 53.7983C199.778 53.6975 199.827 53.5462 199.927 53.3445C200.026 53.1429 200.075 52.9412 200.125 52.6387C200.174 52.3361 200.224 52.0336 200.224 51.5798V50.7731C200.224 50.3193 200.174 49.9664 200.075 49.7143C199.976 49.4622 199.877 49.2101 199.778 49.1093C199.629 48.958 199.48 48.8572 199.282 48.8067C199.084 48.7059 198.885 48.7059 198.687 48.7059Z" fill="#343434"/>
<path d="M204.041 54.7563C204.041 54.8571 203.991 54.8571 203.991 54.9076C203.942 54.958 203.892 55.0084 203.843 55.0084C203.793 55.0588 203.744 55.0588 203.694 55.0588C203.644 55.0588 203.545 55.0588 203.496 55.0588C203.347 55.0588 203.248 55.0084 203.149 55.0084C203.05 54.958 203 54.8571 203 54.7563V45.3277C203 45.1765 203.05 45.126 203.099 45.0756C203.149 45.0252 203.248 45.0252 203.397 45.0252C203.496 45.0252 203.545 45.0252 203.644 45.0756C203.744 45.126 203.793 45.126 203.892 45.1765C203.991 45.2269 204.041 45.2773 204.091 45.3277C204.14 45.4286 204.19 45.479 204.19 45.5798V54.7563H204.041Z" fill="#343434"/>
<path d="M206.024 45.3277C206.024 45.2773 206.074 45.2269 206.074 45.1765C206.123 45.126 206.173 45.0756 206.222 45.0756C206.272 45.0252 206.321 45.0252 206.371 45.0252C206.42 45.0252 206.52 45.0252 206.569 45.0252C206.718 45.0252 206.817 45.0756 206.916 45.0756C207.015 45.126 207.065 45.2269 207.065 45.3277V46.3866C207.065 46.4874 207.015 46.4874 207.015 46.5378C206.966 46.5882 206.916 46.6387 206.867 46.6387C206.817 46.6891 206.768 46.6891 206.718 46.6891C206.668 46.6891 206.569 46.6891 206.52 46.6891C206.371 46.6891 206.272 46.6387 206.173 46.6387C206.073 46.5882 206.024 46.4874 206.024 46.3866V45.3277ZM207.115 54.7563C207.115 54.8571 207.065 54.8571 207.065 54.9076C207.015 54.958 206.966 55.0084 206.916 55.0084C206.867 55.0588 206.817 55.0588 206.768 55.0588C206.718 55.0588 206.619 55.0588 206.569 55.0588C206.421 55.0588 206.321 55.0084 206.222 55.0084C206.123 54.958 206.074 54.8571 206.074 54.7563V48.1513C206.074 48.1008 206.123 48.0504 206.123 48C206.173 47.9496 206.222 47.8992 206.272 47.8992C206.321 47.8487 206.371 47.8487 206.421 47.8487C206.47 47.8487 206.569 47.8487 206.619 47.8487C206.768 47.8487 206.867 47.8992 206.966 47.8992C207.065 47.9496 207.115 48.0504 207.115 48.1513V54.7563Z" fill="#343434"/>
<path d="M211.774 55.0588C211.328 55.0588 210.882 55.0084 210.585 54.958C210.238 54.8572 209.99 54.7563 209.742 54.6555C209.544 54.5042 209.345 54.353 209.197 54.1513C209.048 53.9496 208.949 53.7479 208.899 53.4454C208.8 53.1933 208.8 52.8908 208.75 52.5883C208.701 52.2857 208.701 51.9832 208.701 51.5798V51.3277C208.701 50.9748 208.701 50.6219 208.75 50.3193C208.8 50.0168 208.8 49.7143 208.899 49.4622C208.998 49.2101 209.097 49.0084 209.197 48.7563C209.345 48.5546 209.494 48.4034 209.742 48.2521C209.99 48.1009 210.238 48 210.585 47.9496C210.932 47.8488 211.328 47.8488 211.774 47.8488C212.171 47.8488 212.568 47.8992 212.865 47.9496C213.162 48 213.46 48.1009 213.708 48.2017C213.956 48.3025 214.104 48.4034 214.203 48.5546C214.303 48.7059 214.402 48.8067 214.402 48.958C214.402 49.0084 214.402 49.0588 214.352 49.1093C214.352 49.1597 214.303 49.2101 214.303 49.2605C214.253 49.3109 214.203 49.3614 214.203 49.3614C214.203 49.3614 214.104 49.4118 214.005 49.4118C213.906 49.4118 213.856 49.3614 213.757 49.3109C213.658 49.2605 213.509 49.2101 213.361 49.1093C213.162 49.0084 212.964 48.958 212.667 48.9076C212.369 48.8572 212.072 48.8067 211.626 48.8572C211.328 48.8572 211.08 48.9076 210.882 48.958C210.684 49.0084 210.485 49.1093 210.287 49.2101C210.138 49.3614 209.99 49.563 209.94 49.8151C209.841 50.1177 209.791 50.4706 209.791 50.9244V52.0336C209.791 52.3361 209.841 52.6387 209.841 52.8908C209.891 53.1429 209.94 53.395 210.089 53.5967C210.238 53.7983 210.386 53.9496 210.634 54.0504C210.882 54.1513 211.179 54.2017 211.626 54.2017C211.973 54.2017 212.27 54.1513 212.568 54.1513C212.865 54.1009 213.113 54.0504 213.361 53.9496C213.46 53.8992 213.509 53.8488 213.559 53.8488C213.609 53.7983 213.708 53.7479 213.757 53.7479C213.807 53.6975 213.856 53.6975 213.906 53.6471C213.956 53.5967 214.005 53.5967 214.055 53.5967C214.203 53.5967 214.303 53.6471 214.352 53.6975C214.402 53.7983 214.451 53.8488 214.451 53.9496C214.451 54.1009 214.402 54.2521 214.253 54.353C214.104 54.5042 213.956 54.6051 213.757 54.7059C213.509 54.8067 213.262 54.9076 212.915 54.958C212.518 55.1597 212.221 55.0588 211.774 55.0588Z" fill="#343434"/>
<path d="M218.665 55.0588C218.219 55.0588 217.773 55.0084 217.475 54.9076C217.128 54.8067 216.88 54.7059 216.632 54.5546C216.385 54.4034 216.236 54.2017 216.087 54C215.938 53.7983 215.839 53.5462 215.79 53.2437C215.74 52.9916 215.641 52.6891 215.641 52.3866C215.591 52.084 215.591 51.7815 215.591 51.479V51.4286C215.591 51.1261 215.591 50.8235 215.641 50.521C215.691 50.2185 215.74 49.9664 215.79 49.6639C215.889 49.4118 215.988 49.1597 216.087 48.9076C216.236 48.7059 216.434 48.5042 216.632 48.353C216.88 48.2017 217.128 48.0504 217.475 48C217.822 47.8992 218.219 47.8488 218.665 47.8488H218.715C219.161 47.8488 219.607 47.8992 219.904 48C220.251 48.1009 220.499 48.2017 220.747 48.353C220.995 48.5042 221.144 48.7059 221.292 48.9076C221.441 49.1093 221.54 49.3614 221.639 49.6639C221.738 49.916 221.788 50.2185 221.788 50.521C221.788 50.8235 221.838 51.1261 221.838 51.4286V51.479C221.838 51.7815 221.838 52.084 221.788 52.3866C221.738 52.6891 221.689 52.9412 221.639 53.2437C221.54 53.4958 221.441 53.7479 221.292 54C221.144 54.2017 220.945 54.4034 220.747 54.5546C220.499 54.7059 220.251 54.8572 219.904 54.9076C219.557 55.0084 219.161 55.0588 218.715 55.0588H218.665ZM218.715 54.1513C219.161 54.1513 219.508 54.1009 219.756 53.9496C220.003 53.8488 220.202 53.6471 220.35 53.4454C220.499 53.2437 220.598 52.9412 220.648 52.6387C220.697 52.3361 220.747 51.9328 220.747 51.5294V51.3277C220.747 50.9244 220.697 50.521 220.648 50.2185C220.598 49.916 220.499 49.6135 220.35 49.4118C220.202 49.2101 220.003 49.0084 219.756 48.9076C219.508 48.8067 219.161 48.7059 218.715 48.7059H218.615C218.169 48.7059 217.822 48.7563 217.574 48.9076C217.326 49.0084 217.128 49.2101 216.979 49.4118C216.831 49.6135 216.732 49.916 216.682 50.2185C216.632 50.521 216.583 50.9244 216.583 51.3277V51.5294C216.583 51.9328 216.632 52.3361 216.682 52.6387C216.732 52.9412 216.831 53.2437 216.979 53.4454C217.128 53.6471 217.326 53.8488 217.574 53.9496C217.822 54.0504 218.169 54.1513 218.615 54.1513H218.715Z" fill="#343434"/>
<path d="M224.366 49.7143C224.366 49.916 224.465 50.1176 224.564 50.2185C224.713 50.3697 224.862 50.4706 225.109 50.5714C225.357 50.6723 225.556 50.7227 225.853 50.8235C226.15 50.8739 226.398 50.9748 226.745 51.0252C227.043 51.126 227.34 51.1765 227.638 51.2773C227.935 51.3781 228.183 51.479 228.381 51.6302C228.629 51.7815 228.778 51.9328 228.927 52.1849C229.075 52.3866 229.125 52.6387 229.125 52.9916C229.125 53.1429 229.075 53.2941 229.075 53.4454C229.026 53.5966 228.976 53.7479 228.927 53.8992C228.827 54.0504 228.728 54.2017 228.629 54.3529C228.53 54.5042 228.332 54.605 228.133 54.7059C227.935 54.8067 227.687 54.9076 227.34 54.958C227.043 55.0084 226.646 55.0588 226.25 55.0588C225.903 55.0588 225.556 55.0084 225.209 54.958C224.862 54.9076 224.515 54.8067 224.267 54.7059C223.969 54.605 223.771 54.5042 223.573 54.3529C223.374 54.2017 223.325 54.0504 223.325 53.8992C223.325 53.7983 223.374 53.7479 223.424 53.6471C223.474 53.5462 223.573 53.5462 223.672 53.5462C223.771 53.5462 223.87 53.5966 224.019 53.6471C224.168 53.6975 224.316 53.7983 224.515 53.8487C224.713 53.9496 224.961 54 225.258 54.0504C225.556 54.1008 225.903 54.1513 226.299 54.1513C226.547 54.1513 226.795 54.1008 227.043 54.0504C227.291 54 227.439 53.8992 227.638 53.8487C227.836 53.7983 227.935 53.6471 228.034 53.4958C228.133 53.3445 228.183 53.1933 228.183 52.9916C228.183 52.7899 228.084 52.5882 227.985 52.4874C227.885 52.3866 227.687 52.2353 227.439 52.1345C227.191 52.0336 226.993 51.9832 226.696 51.8824C226.398 51.8319 226.15 51.7311 225.803 51.6807C225.506 51.5798 225.209 51.5294 224.911 51.4286C224.614 51.3277 224.366 51.2269 224.168 51.0756C223.92 50.9244 223.771 50.7227 223.622 50.521C223.474 50.3193 223.424 50.0168 223.424 49.7143C223.424 49.4118 223.523 49.1597 223.622 48.8571C223.771 48.605 223.969 48.4034 224.168 48.2521C224.415 48.1008 224.663 47.9496 225.01 47.8992C225.357 47.8487 225.704 47.7479 226.051 47.7479C226.2 47.7479 226.299 47.7479 226.497 47.7983C226.696 47.7983 226.844 47.8487 226.993 47.8487C227.191 47.8992 227.34 47.9496 227.538 47.9496C227.737 48 227.885 48.0504 228.034 48.1513C228.183 48.2521 228.332 48.3025 228.431 48.4538C228.579 48.5546 228.629 48.7059 228.679 48.8571C228.728 48.9076 228.728 48.958 228.728 49.0084C228.728 49.0588 228.679 49.1092 228.679 49.1597C228.629 49.2101 228.579 49.2605 228.53 49.2605C228.48 49.3109 228.381 49.3109 228.332 49.3109C228.232 49.3109 228.133 49.2605 228.034 49.2101C227.885 49.1597 227.786 49.0588 227.588 49.0084C227.39 48.9076 227.191 48.8571 226.894 48.8067C226.646 48.7059 226.349 48.7059 225.952 48.7059C225.655 48.7059 225.407 48.7563 225.159 48.8067C224.961 48.9076 224.812 48.958 224.663 49.0588C224.515 49.1597 224.465 49.2605 224.415 49.4118C224.415 49.5126 224.366 49.6134 224.366 49.7143Z" fill="#343434"/>
<defs>
<linearGradient id="paint0_linear_1255_671" x1="20.5863" y1="14.0484" x2="18.7436" y2="11.2101" gradientUnits="userSpaceOnUse">
<stop stop-color="#EB2625"/>
<stop offset="0.456" stop-color="#F4842A"/>
<stop offset="1" stop-color="#FFF02F"/>
</linearGradient>
<linearGradient id="paint1_linear_1255_671" x1="5.38443" y1="11.6484" x2="11.7882" y2="12.8289" gradientUnits="userSpaceOnUse">
<stop stop-color="#009345"/>
<stop offset="0.5149" stop-color="#71BB37"/>
<stop offset="0.993" stop-color="#D5DE2A"/>
</linearGradient>
</defs>
</svg>
